<?xml version="1.0" encoding="utf-8"?>
<!-- Generator: Adobe Illustrator 16.0.0, SVG Export Plug-In . SVG Version: 6.00 Build 0)  -->
<!DOCTYPE svg PUBLIC "-//W3C//DTD SVG 1.1//EN" "http://www.w3.org/Graphics/SVG/1.1/DTD/svg11.dtd">
<svg version="1.1" id="Layer_1" xmlns="http://www.w3.org/2000/svg" xmlns:xlink="http://www.w3.org/1999/xlink" x="0px" y="0px"
	 width="200px" height="285px" viewBox="0 0 200 285" enable-background="new 0 0 200 285" xml:space="preserve">
<g>
	<path fill="#FF694F" d="M198.728,2.061l-0.739-1.385l-0.532,0.241c-0.478-0.242-1.023-0.381-1.603-0.381H3.356
		c-1.834,0-3.335,1.381-3.335,3.071V280.57l-0.457,0.209l0.761,1.426l0.002-0.002C0.856,283.26,2.016,284,3.356,284h192.497
		c1.834,0,3.335-1.381,3.335-3.07V3.607C199.188,3.043,199.019,2.516,198.728,2.061z"/>
	<g>
		<g>
			<path display="none" fill="#FFFFFF" d="M198.354,279.395c0,1.688-1.501,3.07-3.335,3.07H2.523c-1.834,0-3.335-1.383-3.335-3.07
				V2.072C-0.812,0.382,0.688-1,2.523-1H195.02c1.834,0,3.335,1.382,3.335,3.071V279.395z"/>
		</g>
		<path opacity="0.2" fill="#B7D8DD" d="M195.02,0H74.974L176.35,283.465h18.67c1.834,0,3.335-1.383,3.335-3.07V3.071
			C198.354,1.382,196.854,0,195.02,0z"/>
	</g>
</g>
</svg>
