<?xml version="1.0" encoding="utf-8"?>
<!-- Generator: Adobe Illustrator 16.0.0, SVG Export Plug-In . SVG Version: 6.00 Build 0)  -->
<!DOCTYPE svg PUBLIC "-//W3C//DTD SVG 1.1//EN" "http://www.w3.org/Graphics/SVG/1.1/DTD/svg11.dtd">
<svg version="1.1" id="Layer_1" xmlns="http://www.w3.org/2000/svg" xmlns:xlink="http://www.w3.org/1999/xlink" x="0px" y="0px"
	 width="200px" height="285px" viewBox="0 0 200 285" enable-background="new 0 0 200 285" xml:space="preserve">
<g>
	<path fill="#90BABF" d="M199.728,3.061l-0.739-1.385l-0.532,0.241c-0.478-0.242-1.023-0.381-1.603-0.381H4.356
		c-1.834,0-3.335,1.381-3.335,3.071V281.57l-0.457,0.209l0.761,1.426l0.002-0.002C1.856,284.26,3.016,285,4.356,285h192.497
		c1.834,0,3.335-1.381,3.335-3.07V4.607C200.188,4.043,200.019,3.516,199.728,3.061z"/>
	<g>
		<g>
			<path fill="#FFFFFF" d="M199.354,280.395c0,1.688-1.501,3.07-3.335,3.07H3.523c-1.834,0-3.335-1.383-3.335-3.07V3.072
				C0.188,1.382,1.688,0,3.523,0H196.02c1.834,0,3.335,1.382,3.335,3.071V280.395z"/>
		</g>
		<path opacity="0.2" fill="#B7D8DD" d="M196.02,0H75.974L177.35,283.465h18.67c1.834,0,3.335-1.383,3.335-3.07V3.072
			C199.354,1.382,197.854,0,196.02,0z"/>
	</g>
</g>
</svg>
