<?xml version="1.0" encoding="utf-8"?>
<!-- Generator: Adobe Illustrator 16.0.0, SVG Export Plug-In . SVG Version: 6.00 Build 0)  -->
<!DOCTYPE svg PUBLIC "-//W3C//DTD SVG 1.1//EN" "http://www.w3.org/Graphics/SVG/1.1/DTD/svg11.dtd">
<svg version="1.1" id="Layer_1" xmlns="http://www.w3.org/2000/svg" xmlns:xlink="http://www.w3.org/1999/xlink" x="0px" y="0px"
	 width="60px" height="60px" viewBox="0 0 60 60" enable-background="new 0 0 60 60" xml:space="preserve">
<g>
	<path fill="#011890" d="M7.72,54.653c-0.298,0-0.6-0.058-0.886-0.177c-0.869-0.359-1.434-1.207-1.434-2.146V9.562
		c0-1.282,1.038-2.321,2.322-2.321h45.303c1.281,0,2.321,1.039,2.321,2.321v29.891c0,1.282-1.04,2.321-2.321,2.321H21.562
		L9.363,53.973C8.92,54.417,8.325,54.653,7.72,54.653z M10.042,11.884v34.843l8.917-8.914c0.436-0.436,1.025-0.681,1.64-0.681
		h30.104V11.884H10.042z"/>
	<g>
		<circle fill="#011890" cx="20.178" cy="24.509" r="3.233"/>
		<circle fill="#011890" cx="30.374" cy="24.509" r="3.232"/>
		<circle fill="#011890" cx="40.57" cy="24.509" r="3.233"/>
	</g>
</g>
</svg>
