<?xml version="1.0" encoding="utf-8"?>
<!-- Generator: Adobe Illustrator 16.0.0, SVG Export Plug-In . SVG Version: 6.00 Build 0)  -->
<!DOCTYPE svg PUBLIC "-//W3C//DTD SVG 1.1//EN" "http://www.w3.org/Graphics/SVG/1.1/DTD/svg11.dtd">
<svg version="1.1" id="Layer_1" xmlns="http://www.w3.org/2000/svg" xmlns:xlink="http://www.w3.org/1999/xlink" x="0px" y="0px"
	 width="400px" height="400px" viewBox="0 0 400 400" style="enable-background:new 0 0 400 400;" xml:space="preserve">
<path style="fill:#ADD3D8;" d="M364.896,200.809c0,89.779-72.783,162.561-162.56,162.561c-89.784,0-162.562-72.781-162.562-162.561
	c0-89.779,72.778-162.56,162.562-162.56C292.112,38.249,364.896,111.03,364.896,200.809z"/>
<g>
	<defs>
		<circle id="SVGID_1_" cx="202.614" cy="195.53" r="166.839"/>
	</defs>
	<clipPath id="SVGID_2_">
		<use xlink:href="#SVGID_1_"  style="overflow:visible;"/>
	</clipPath>
	<g style="clip-path:url(#SVGID_2_);">
		<g>
			<defs>
				<path id="SVGID_3_" d="M108.335,162.671c0,29.607,24.002,53.609,53.61,53.609c1.317,0,2.621-0.064,3.913-0.157l2.705,23.572
					c-11.115,9.691-25.651,15.561-41.56,15.561c-34.946,0-63.271-28.326-63.271-63.272c0-32.634,24.708-59.496,56.444-62.9
					C112.775,138.273,108.335,149.949,108.335,162.671z"/>
			</defs>
			<clipPath id="SVGID_4_">
				<use xlink:href="#SVGID_3_"  style="overflow:visible;"/>
			</clipPath>
			<path style="clip-path:url(#SVGID_4_);fill:#FF694F;" d="M108.335,162.671c0,29.607,24.002,53.609,53.61,53.609
				c1.317,0,2.621-0.064,3.913-0.157l2.705,23.572c-11.115,9.691-25.651,15.561-41.56,15.561c-34.946,0-63.271-28.326-63.271-63.272
				c0-32.634,24.708-59.496,56.444-62.9C112.775,138.273,108.335,149.949,108.335,162.671z"/>
			<path style="clip-path:url(#SVGID_4_);fill:#FFDA00;" d="M201.443,182.577c9.057-31.627-31.361-58.199-66.709-56.593
				c-35.349,1.609-62.786,29.555-61.291,62.419c1.497,32.859,29.189,58.195,64.539,56.589
				C173.33,243.385,192.615,213.416,201.443,182.577z"/>
			<path style="clip-path:url(#SVGID_4_);fill:#9DEB00;" d="M200.637,179.797c5.203-30.121-25.935-55.343-57.935-55.343
				c-31.997,0-57.935,24.777-57.935,55.343c0,30.566,25.988,57.163,57.883,54.616C174.456,231.877,195.145,211.607,200.637,179.797z
				"/>
			<path style="clip-path:url(#SVGID_4_);fill:#00B5FF;" d="M204.982,171.196c0-28.814-24.068-52.174-53.759-52.174
				c-29.692,0-53.762,23.36-53.762,52.174c0,28.819,21.114,53.807,53.762,52.179C180.878,221.897,204.982,200.015,204.982,171.196z"
				/>
		</g>
		<path style="fill:#ADD3D8;" d="M184.393,173.389c-36.211,0-65.564,35.981-65.564,80.369v233.506h35.173V302.245
			c0-20.571,13.602-37.249,30.391-37.249c16.778,0,30.386,16.678,30.386,37.249v185.019h35.171V253.758
			C249.949,209.37,220.596,173.389,184.393,173.389z"/>
		<path style="fill:#44777C;" d="M258.57,347.208c-25.629,19.16-43.984,15.503-43.984,15.503s0-43.525,0-61.491
			c0-2.013-0.653-5.589-1.539-8.674c-0.656-2.285,1.539-9.179,1.539-9.179l44.617-10.878
			C259.203,272.489,278.43,332.369,258.57,347.208z"/>
		<path style="fill:#44777C;" d="M118.884,252.913c20.18,3.007,50.938,33.25,46.325,64.212
			c-4.614,30.967-24.712,53.628-44.892,50.62"/>
		<path style="fill:#FFFFFF;" d="M210.965,173.389c-36.206,0-65.558,35.981-65.558,80.369v233.506h35.171V302.245
			c0-20.571,13.606-37.249,30.387-37.249c16.787,0,30.389,16.678,30.389,37.249v185.019h35.174V253.758
			C276.527,209.37,247.174,173.389,210.965,173.389z"/>
		<path style="fill:#FFFFFF;" d="M205.27,177.578c-6.561-2.706-13.577-4.188-20.877-4.188c-36.211,0-65.564,35.981-65.564,80.369
			v32.437c15.11,2.155,26.843,17.875,26.843,36.977v164.093h35.174V253.758L205.27,177.578z"/>
		<path style="fill:#81AFB5;" d="M210.965,264.996c16.787,0,30.389,16.678,30.389,37.249v11.021
			c13.332-5.15,25.293-13.047,35.174-23.017v-36.492c0-44.388-29.354-80.369-65.563-80.369"/>
		<path style="fill:#FFFFFF;" d="M264.244,103.942l5.311-32.37c-9.02,8.092-19.543,19.217-26.613,32.37h-64.362
			c-7.068-13.153-17.594-24.278-26.614-32.37l18.414,112.16c0.019-0.036,0.044-0.072,0.063-0.109l10.588,64.553
			c-3.755,3.188-6.146,7.936-6.146,13.246c0,7.326,4.54,13.582,10.956,16.139c4.339,9.496,13.899,16.106,25.019,16.106
			c11.123,0,20.684-6.61,25.023-16.106c6.414-2.557,10.951-8.813,10.951-16.139c0-5.311-2.389-10.058-6.146-13.246l23.66-144.233
			H264.244z"/>
		<path style="fill:#ADD3D8;" d="M194.532,214.71c0,0-18.721-62.774,45.685-87.042c-15.961-9.878-64.204,6.414-65.333,40.352
			C173.753,201.961,184.36,209.535,194.532,214.71z"/>
		<g>
			<defs>
				<path id="SVGID_5_" d="M182.691,181.119c0-29.607,24.002-53.609,53.613-53.609c1.316,0,2.619,0.065,3.912,0.158l2.705-23.572
					c-11.117-9.691-25.654-15.56-41.561-15.56c-34.945,0-63.273,28.325-63.273,63.271c0,32.636,24.71,59.494,56.443,62.902
					C187.133,205.518,182.691,193.839,182.691,181.119z"/>
			</defs>
			<clipPath id="SVGID_6_">
				<use xlink:href="#SVGID_5_"  style="overflow:visible;"/>
			</clipPath>
			<path style="clip-path:url(#SVGID_6_);fill:#FF694F;" d="M182.691,181.119c0-29.607,24.002-53.609,53.613-53.609
				c1.316,0,2.619,0.065,3.912,0.158l2.705-23.572c-11.117-9.691-25.654-15.56-41.561-15.56c-34.945,0-63.273,28.325-63.273,63.271
				c0,32.636,24.71,59.494,56.443,62.902C187.133,205.518,182.691,193.839,182.691,181.119z"/>
			<path style="clip-path:url(#SVGID_6_);fill:#FFDA00;" d="M275.801,161.213c9.057,31.628-31.359,58.201-66.707,56.592
				c-35.348-1.606-62.787-29.556-61.292-62.415c1.497-32.864,29.188-58.201,64.539-56.591
				C247.686,100.408,266.971,130.374,275.801,161.213z"/>
			<path style="clip-path:url(#SVGID_6_);fill:#9DEB00;" d="M274.996,163.995c5.201,30.119-25.939,55.343-57.936,55.343
				c-31.998,0-57.935-24.776-57.935-55.343c0-30.57,25.987-57.164,57.882-54.619C248.813,111.912,269.502,132.183,274.996,163.995z"
				/>
			<path style="clip-path:url(#SVGID_6_);fill:#00B5FF;" d="M279.34,172.592c0,28.818-24.07,52.181-53.758,52.181
				c-29.692,0-53.763-23.362-53.763-52.181c0-28.816,21.116-53.803,53.763-52.175C255.234,121.895,279.34,143.775,279.34,172.592z"
				/>
		</g>
		<path style="fill:#E9EAEB;" d="M238.805,250.648c3.4,1.561,5.859,5.833,5.859,10.919c0,5.09-2.459,9.361-5.859,10.922
			c-3.4-1.561-5.863-5.832-5.863-10.922C232.941,256.481,235.404,252.209,238.805,250.648z"/>
		<path style="fill:#81AFB5;" d="M194.352,261.567c0,6.402-3.871,11.593-8.65,11.593c-4.774,0-8.644-5.19-8.644-11.593
			c0-6.398,3.87-11.591,8.644-11.591C190.48,249.977,194.352,255.169,194.352,261.567z"/>
		<path style="fill:#44777C;" d="M192.322,261.567c0-5.933-3.34-10.771-7.632-11.452c0.335-0.052,0.666-0.139,1.012-0.139
			c4.779,0,8.65,5.192,8.65,11.591c0,6.402-3.871,11.593-8.65,11.593c-0.346,0-0.677-0.083-1.012-0.138
			C188.981,272.341,192.322,267.507,192.322,261.567z"/>
		<path style="fill:#FFFFFF;" d="M188.778,264.209c0,4.938-2.299,8.951-5.142,8.951c-2.84,0-5.144-4.013-5.144-8.951
			c0-4.943,2.304-8.953,5.144-8.953C186.479,255.256,188.778,259.266,188.778,264.209z"/>
		<path style="fill:#ADD3D8;" d="M221.705,272.584c-0.244,11.709-5.477,17.873-9.08,21.017c10.359-0.658,19.148-7.051,23.258-16.04
			c6.414-2.557,10.951-8.813,10.951-16.139c0-5.311-2.389-10.058-6.146-13.246l16.75-102.094c-1.438-0.863-2.336-4.512-3.91-4.512
			c-17.576,0-31.822,28.075-31.822,65.583V272.584z"/>
		<path style="fill:#81AFB5;" d="M227.369,261.567c0,6.402,3.873,11.593,8.65,11.593c4.773,0,8.645-5.19,8.645-11.593
			c0-6.398-3.871-11.591-8.645-11.591C231.242,249.977,227.369,255.169,227.369,261.567z"/>
		<path style="fill:#44777C;" d="M229.398,261.567c0-5.933,3.342-10.771,7.635-11.452c-0.34-0.052-0.666-0.139-1.014-0.139
			c-4.777,0-8.65,5.192-8.65,11.591c0,6.402,3.873,11.593,8.65,11.593c0.348,0,0.674-0.083,1.014-0.138
			C232.74,272.341,229.398,267.507,229.398,261.567z"/>
		<path style="fill:#E6F2F2;" d="M243.189,264.209c0,4.938-2.303,8.951-5.145,8.951c-2.838,0-5.143-4.013-5.143-8.951
			c0-4.943,2.305-8.953,5.143-8.953C240.887,255.256,243.189,259.266,243.189,264.209z"/>
		<g>
			<path style="fill:#CCB7CF;" d="M259.18,147.124c0,2.007-1.629,3.634-3.633,3.634c-2.01,0-3.637-1.627-3.637-3.634
				s1.627-3.638,3.637-3.638C257.551,143.486,259.18,145.117,259.18,147.124z"/>
		</g>
		<rect x="241.354" y="460.473" style="fill:#81AFB5;" width="35.174" height="26.791"/>
		<rect x="214.613" y="460.473" style="fill:#44777C;" width="26.74" height="26.791"/>
		<rect x="145.569" y="460.473" style="fill:#81AFB5;" width="35.172" height="26.791"/>
		<rect x="118.829" y="460.473" style="fill:#44777C;" width="26.741" height="26.791"/>
		<g>
			<g>
				<circle style="fill:#44777C;" cx="251.883" cy="150.373" r="8.961"/>
			</g>
			<g>
				<path style="fill:#C5D8D9;" d="M258.156,148.79c0,2.006-1.629,3.634-3.633,3.634c-2.012,0-3.637-1.628-3.637-3.634
					c0-2.007,1.625-3.635,3.637-3.635C256.527,145.155,258.156,146.783,258.156,148.79z"/>
			</g>
			<g>
				<circle style="fill:#C5D8D9;" cx="251.883" cy="154.762" r="1.645"/>
			</g>
			<g>
				<path style="fill:#C5D8D9;" d="M250.238,151.557c0,0.481-0.387,0.868-0.867,0.868s-0.867-0.386-0.867-0.868
					c0-0.475,0.387-0.866,0.867-0.866S250.238,151.082,250.238,151.557z"/>
			</g>
		</g>
		<circle style="fill:#ADD3D8;" cx="207.51" cy="152.424" r="13.244"/>
		<path style="fill:#81AFB5;" d="M197.078,151.442l10.43-106.438l10.432,106.438c0,5.759-4.67,10.43-10.432,10.43
			S197.078,157.201,197.078,151.442z"/>
		<path style="fill:#44777C;" d="M207.508,45.004l10.432,106.438c0,5.759-4.67,10.43-10.432,10.43"/>
	</g>
</g>
</svg>
