<?xml version="1.0" encoding="utf-8"?>
<!-- Generator: Adobe Illustrator 16.0.0, SVG Export Plug-In . SVG Version: 6.00 Build 0)  -->
<!DOCTYPE svg PUBLIC "-//W3C//DTD SVG 1.1//EN" "http://www.w3.org/Graphics/SVG/1.1/DTD/svg11.dtd">
<svg version="1.1" id="Layer_1" xmlns="http://www.w3.org/2000/svg" xmlns:xlink="http://www.w3.org/1999/xlink" x="0px" y="0px"
	 width="200px" height="250px" viewBox="0 0 200 250" style="enable-background:new 0 0 200 250;" xml:space="preserve">
<g>
	<path style="fill:#FFFFFF;" d="M146.109,67.167l4.463-27.195c-7.578,6.798-16.42,16.145-22.359,27.195h-54.07
		c-5.938-11.05-14.781-20.396-22.358-27.195l15.47,94.228c0.016-0.029,0.037-0.061,0.053-0.092l8.895,54.232
		c-3.154,2.678-5.163,6.666-5.163,11.127c0,6.154,3.814,11.41,9.204,13.559c3.646,7.977,11.677,13.533,21.019,13.533
		c9.344,0,17.375-5.557,21.023-13.533c5.387-2.148,9.199-7.404,9.199-13.559c0-4.461-2.006-8.449-5.164-11.127l19.879-121.173
		H146.109z"/>
	<path style="fill:#ADD3D8;" d="M87.543,160.223c0,0-15.726-52.736,38.38-73.124c-13.408-8.299-53.937,5.388-54.885,33.9
		C70.088,149.514,79,155.875,87.543,160.223z"/>
	<g>
		<defs>
			<path id="SVGID_1_" d="M77.597,132.004c0-24.874,20.165-45.038,45.04-45.038c1.107,0,2.201,0.055,3.287,0.133l2.273-19.803
				c-9.34-8.142-21.553-13.072-34.915-13.072c-29.358,0-53.157,23.796-53.157,53.154c0,27.418,20.759,49.983,47.417,52.844
				C81.329,152.5,77.597,142.689,77.597,132.004z"/>
		</defs>
		<clipPath id="SVGID_2_">
			<use xlink:href="#SVGID_1_"  style="overflow:visible;"/>
		</clipPath>
		<path style="clip-path:url(#SVGID_2_);fill:#FF694F;" d="M77.597,132.004c0-24.874,20.165-45.038,45.04-45.038
			c1.107,0,2.201,0.055,3.287,0.133l2.273-19.803c-9.34-8.142-21.553-13.072-34.915-13.072c-29.358,0-53.157,23.796-53.157,53.154
			c0,27.418,20.759,49.983,47.417,52.844C81.329,152.5,77.597,142.689,77.597,132.004z"/>
		<path style="clip-path:url(#SVGID_2_);fill:#FFDA00;" d="M155.82,115.28c7.607,26.572-26.348,48.896-56.043,47.544
			c-29.695-1.35-52.747-24.83-51.492-52.437c1.258-27.609,24.521-48.895,54.22-47.542C132.199,64.197,148.402,89.372,155.82,115.28z
			"/>
		<path style="clip-path:url(#SVGID_2_);fill:#9DEB00;" d="M155.143,117.618c4.371,25.304-21.791,46.494-48.672,46.494
			c-26.88,0-48.671-20.816-48.671-46.494c0-25.683,21.832-48.024,48.628-45.886C133.145,73.861,150.527,90.892,155.143,117.618z"/>
		<path style="clip-path:url(#SVGID_2_);fill:#00B5FF;" d="M158.791,124.839c0,24.211-20.221,43.838-45.162,43.838
			c-24.944,0-45.166-19.627-45.166-43.838c0-24.208,17.74-45.201,45.166-43.833C138.541,82.248,158.791,100.631,158.791,124.839z"/>
	</g>
	<path style="fill:#E9EAEB;" d="M124.738,190.416c2.855,1.313,4.922,4.902,4.922,9.174c0,4.275-2.066,7.865-4.922,9.176
		c-2.857-1.311-4.926-4.9-4.926-9.176C119.813,195.318,121.881,191.729,124.738,190.416z"/>
	<ellipse style="fill:#81AFB5;" cx="80.129" cy="199.59" rx="7.264" ry="9.738"/>
	<path style="fill:#44777C;" d="M85.688,199.59c0-4.984-2.806-9.049-6.412-9.621c0.282-0.043,0.56-0.117,0.851-0.117
		c4.015,0,7.267,4.361,7.267,9.738c0,5.379-3.252,9.738-7.267,9.738c-0.291,0-0.568-0.07-0.851-0.115
		C82.882,208.641,85.688,204.58,85.688,199.59z"/>
	<path style="fill:#FFFFFF;" d="M82.71,201.811c0,4.148-1.932,7.518-4.319,7.518c-2.386,0-4.322-3.369-4.322-7.518
		c0-4.156,1.936-7.523,4.322-7.523C80.779,194.287,82.71,197.654,82.71,201.811z"/>
	<path style="fill:#ADD3D8;" d="M110.373,208.846c-0.205,9.836-4.602,15.014-7.629,17.654c8.705-0.551,16.088-5.924,19.541-13.475
		c5.387-2.148,9.199-7.404,9.199-13.559c0-4.461-2.006-8.449-5.164-11.127l14.07-85.772c-1.207-0.725-1.963-3.79-3.285-3.79
		c-14.764,0-26.732,23.586-26.732,55.095V208.846z"/>
	<ellipse style="fill:#81AFB5;" cx="122.396" cy="199.59" rx="7.265" ry="9.738"/>
	<path style="fill:#44777C;" d="M116.836,199.59c0-4.984,2.807-9.049,6.414-9.621c-0.285-0.043-0.561-0.117-0.852-0.117
		c-4.014,0-7.268,4.361-7.268,9.738c0,5.379,3.254,9.738,7.268,9.738c0.291,0,0.566-0.07,0.852-0.115
		C119.643,208.641,116.836,204.58,116.836,199.59z"/>
	<path style="fill:#E6F2F2;" d="M128.422,201.811c0,4.148-1.934,7.518-4.32,7.518c-2.385,0-4.32-3.369-4.32-7.518
		c0-4.156,1.936-7.523,4.32-7.523C126.488,194.287,128.422,197.654,128.422,201.811z"/>
	<g>
		<circle style="fill:#CCB7CF;" cx="138.802" cy="103.444" r="3.054"/>
	</g>
	<g>
		<g>
			<circle style="fill:#44777C;" cx="135.726" cy="106.174" r="7.528"/>
		</g>
		<g>
			<circle style="fill:#C5D8D9;" cx="137.942" cy="104.844" r="3.054"/>
		</g>
		<g>
			<circle style="fill:#C5D8D9;" cx="135.725" cy="109.861" r="1.381"/>
		</g>
		<g>
			<circle style="fill:#C5D8D9;" cx="133.615" cy="107.168" r="0.729"/>
		</g>
	</g>
	<circle style="fill:#ADD3D8;" cx="98.447" cy="107.896" r="11.125"/>
	<path style="fill:#81AFB5;" d="M89.683,107.072l8.762-89.419l8.764,89.419c0,4.837-3.922,8.761-8.764,8.761
		C93.606,115.833,89.683,111.909,89.683,107.072z"/>
	<path style="fill:#44777C;" d="M98.445,17.652l8.764,89.419c0,4.837-3.922,8.761-8.764,8.761"/>
</g>
</svg>
