<?xml version="1.0" encoding="utf-8"?>
<!-- Generator: Adobe Illustrator 16.0.0, SVG Export Plug-In . SVG Version: 6.00 Build 0)  -->
<!DOCTYPE svg PUBLIC "-//W3C//DTD SVG 1.1//EN" "http://www.w3.org/Graphics/SVG/1.1/DTD/svg11.dtd">
<svg version="1.1" id="Layer_1" xmlns="http://www.w3.org/2000/svg" xmlns:xlink="http://www.w3.org/1999/xlink" x="0px" y="0px"
	 width="200px" height="200px" viewBox="0 0 200 200" enable-background="new 0 0 200 200" xml:space="preserve">
<g>
	<g>
		<polygon fill="#FF9D00" points="6.402,187.12 25.403,165.116 25.403,41.113 6.402,63.117 		"/>
		<rect x="24.406" y="41.113" fill="#FF9D00" width="168.503" height="124.003"/>
		<g>
			<g>
				<path fill="#ADD3D8" d="M183.302,163.489c0,1.514-1.236,2.756-2.754,2.756H31.998c-1.52,0-2.762-1.242-2.762-2.756V19.896
					c0-1.516,1.242-2.757,2.762-2.757h148.55c1.518,0,2.754,1.241,2.754,2.757V163.489z"/>
			</g>
			<g>
				<path fill="#D7E8E8" d="M182.616,162.661c0,1.516-1.242,2.758-2.756,2.758H31.306c-1.514,0-2.756-1.242-2.756-2.758V19.07
					c0-1.517,1.242-2.756,2.756-2.756H179.86c1.514,0,2.756,1.239,2.756,2.756V162.661z"/>
			</g>
		</g>
		<g>
			<g>
				<path fill="#ADD3D8" d="M177.304,168.563c0,1.514-1.238,2.754-2.758,2.754H25.996c-1.514,0-2.754-1.24-2.754-2.754V24.967
					c0-1.513,1.24-2.756,2.754-2.756h148.55c1.52,0,2.758,1.243,2.758,2.756V168.563z"/>
			</g>
			<g>
				<path fill="#D7E8E8" d="M176.614,167.735c0,1.516-1.24,2.756-2.754,2.756H25.304c-1.516,0-2.755-1.24-2.755-2.756V24.142
					c0-1.518,1.239-2.756,2.755-2.756H173.86c1.514,0,2.754,1.238,2.754,2.756V167.735z"/>
			</g>
		</g>
		<g>
			<path fill="#ADD3D8" d="M171.306,173.987c0,1.518-1.242,2.76-2.758,2.76H19.996c-1.515,0-2.756-1.242-2.756-2.76V30.397
				c0-1.517,1.241-2.756,2.756-2.756h148.552c1.516,0,2.758,1.239,2.758,2.756V173.987z"/>
		</g>
		<g>
			<path fill="#FFFFFF" d="M170.614,173.161c0,1.518-1.236,2.756-2.756,2.756H19.306c-1.517,0-2.758-1.238-2.758-2.756V29.572
				c0-1.518,1.241-2.758,2.758-2.758h148.552c1.52,0,2.756,1.24,2.756,2.758V173.161z"/>
		</g>
		<path fill="#F2FAFA" d="M167.858,26.814H74.562l83.791,149.103h9.506c1.52,0,2.756-1.238,2.756-2.756V29.572
			C170.614,28.054,169.378,26.814,167.858,26.814z"/>
		<polygon fill="#FFBB00" points="174.409,187.12 193.407,165.116 193.407,41.113 174.409,63.117 		"/>
		<path fill="#FFDA00" d="M109.653,63.117c0,10.491-8.506,18.998-19,18.998c-10.488,0-18.994-8.507-18.994-18.998H6.402V187.12
			h168.509V63.117H109.653z"/>
	</g>
	<g>
		<polygon fill="#83B600" points="260.403,187.12 279.403,165.116 279.403,41.113 260.403,63.117 		"/>
		<rect x="278.407" y="41.113" fill="#83B600" width="168.503" height="124.003"/>
		<g>
			<g>
				<path fill="#ADD3D8" d="M437.305,163.489c0,1.514-1.236,2.756-2.756,2.756H285.997c-1.52,0-2.76-1.242-2.76-2.756V19.896
					c0-1.516,1.24-2.757,2.76-2.757h148.552c1.52,0,2.756,1.241,2.756,2.757V163.489z"/>
			</g>
			<g>
				<path fill="#D7E8E8" d="M436.617,162.661c0,1.516-1.242,2.758-2.754,2.758H285.306c-1.514,0-2.756-1.242-2.756-2.758V19.07
					c0-1.517,1.242-2.756,2.756-2.756h148.558c1.512,0,2.754,1.239,2.754,2.756V162.661z"/>
			</g>
		</g>
		<g>
			<g>
				<path fill="#ADD3D8" d="M431.305,168.563c0,1.514-1.238,2.754-2.758,2.754h-148.55c-1.514,0-2.756-1.24-2.756-2.754V24.967
					c0-1.513,1.242-2.756,2.756-2.756h148.55c1.52,0,2.758,1.243,2.758,2.756V168.563z"/>
			</g>
			<g>
				<path fill="#D7E8E8" d="M430.617,167.735c0,1.516-1.242,2.756-2.756,2.756H279.304c-1.516,0-2.754-1.24-2.754-2.756V24.142
					c0-1.518,1.238-2.756,2.754-2.756h148.558c1.514,0,2.756,1.238,2.756,2.756V167.735z"/>
			</g>
		</g>
		<g>
			<path fill="#ADD3D8" d="M425.307,173.987c0,1.518-1.242,2.76-2.758,2.76H273.995c-1.514,0-2.756-1.242-2.756-2.76V30.397
				c0-1.517,1.242-2.756,2.756-2.756h148.554c1.516,0,2.758,1.239,2.758,2.756V173.987z"/>
		</g>
		<g>
			<path fill="#FFFFFF" d="M424.615,173.161c0,1.518-1.236,2.756-2.756,2.756H273.306c-1.516,0-2.758-1.238-2.758-2.756V29.572
				c0-1.518,1.242-2.758,2.758-2.758h148.554c1.52,0,2.756,1.24,2.756,2.758V173.161z"/>
		</g>
		<path fill="#F2FAFA" d="M421.859,26.814h-93.298l83.792,149.103h9.506c1.52,0,2.756-1.238,2.756-2.756V29.572
			C424.615,28.054,423.379,26.814,421.859,26.814z"/>
		<polygon fill="#9DCD00" points="428.41,187.12 447.408,165.116 447.408,41.113 428.41,63.117 		"/>
		<path fill="#9DEB00" d="M363.656,63.117c0,10.491-8.508,18.998-19.003,18.998c-10.488,0-18.994-8.507-18.994-18.998h-65.256
			V187.12h168.509V63.117H363.656z"/>
	</g>
	<g>
		<polygon fill="#009DF0" points="260.401,-66.328 279.403,-88.327 279.403,-212.333 260.401,-190.331 		"/>
		<rect x="278.401" y="-212.333" fill="#006FE8" width="168.509" height="124.006"/>
		<g>
			<g>
				<path fill="#ADD3D8" d="M437.303-89.957c0,1.513-1.24,2.757-2.754,2.757H285.997c-1.52,0-2.76-1.244-2.76-2.757v-143.593
					c0-1.517,1.24-2.759,2.76-2.759h148.552c1.514,0,2.754,1.242,2.754,2.759V-89.957z"/>
			</g>
			<g>
				<path fill="#D7E8E8" d="M436.611-90.785c0,1.516-1.236,2.759-2.754,2.759H285.306c-1.516,0-2.762-1.243-2.762-2.759v-143.591
					c0-1.517,1.246-2.757,2.762-2.757h148.552c1.518,0,2.754,1.24,2.754,2.757V-90.785z"/>
			</g>
		</g>
		<g>
			<g>
				<path fill="#ADD3D8" d="M431.303-84.882c0,1.514-1.242,2.755-2.756,2.755h-148.55c-1.52,0-2.756-1.241-2.756-2.755v-143.595
					c0-1.515,1.236-2.758,2.756-2.758h148.55c1.514,0,2.756,1.243,2.756,2.758V-84.882z"/>
			</g>
			<g>
				<path fill="#D7E8E8" d="M430.613-85.71c0,1.514-1.238,2.757-2.756,2.757H279.304c-1.516,0-2.754-1.243-2.754-2.757v-143.593
					c0-1.518,1.238-2.757,2.754-2.757h148.554c1.518,0,2.756,1.239,2.756,2.757V-85.71z"/>
			</g>
		</g>
		<g>
			<path fill="#ADD3D8" d="M425.305-79.458c0,1.516-1.24,2.757-2.756,2.757H273.995c-1.52,0-2.758-1.241-2.758-2.757v-143.591
				c0-1.519,1.238-2.757,2.758-2.757h148.554c1.516,0,2.756,1.238,2.756,2.757V-79.458z"/>
		</g>
		<g>
			<path fill="#FFFFFF" d="M424.615-80.285c0,1.518-1.242,2.757-2.756,2.757H273.304c-1.514,0-2.756-1.239-2.756-2.757v-143.59
				c0-1.518,1.242-2.759,2.756-2.759h148.556c1.514,0,2.756,1.241,2.756,2.759V-80.285z"/>
		</g>
		<path fill="#F2FAFA" d="M421.859-226.633h-93.298l83.79,149.105h9.508c1.514,0,2.756-1.239,2.756-2.757v-143.59
			C424.615-225.392,423.373-226.633,421.859-226.633z"/>
		<polygon fill="#009DF0" points="428.408,-66.328 447.408,-88.327 447.408,-212.333 428.408,-190.331 		"/>
		<path fill="#00B5FF" d="M363.654-190.331c0,10.491-8.506,19-19.001,19c-10.494,0-19-8.509-19-19h-65.252v124.003h168.505v-124.003
			H363.654z"/>
	</g>
	<g>
		<polygon fill="#C5384F" points="6.404,-66.327 25.404,-88.329 25.404,-212.333 6.404,-190.33 		"/>
		<rect x="24.402" y="-212.333" fill="#C5384F" width="168.505" height="124.005"/>
		<g>
			<g>
				<path fill="#ADD3D8" d="M183.304-89.958c0,1.514-1.242,2.758-2.756,2.758H31.994c-1.515,0-2.756-1.244-2.756-2.758v-143.594
					c0-1.516,1.241-2.757,2.756-2.757h148.554c1.514,0,2.756,1.241,2.756,2.757V-89.958z"/>
			</g>
			<g>
				<path fill="#D7E8E8" d="M182.614-90.785c0,1.515-1.24,2.758-2.754,2.758H31.307c-1.514,0-2.761-1.243-2.761-2.758v-143.593
					c0-1.516,1.247-2.756,2.761-2.756H179.86c1.514,0,2.754,1.24,2.754,2.756V-90.785z"/>
			</g>
		</g>
		<g>
			<g>
				<path fill="#ADD3D8" d="M177.304-84.883c0,1.514-1.236,2.754-2.756,2.754H25.995c-1.517,0-2.758-1.24-2.758-2.754v-143.596
					c0-1.514,1.241-2.757,2.758-2.757h148.553c1.52,0,2.756,1.243,2.756,2.757V-84.883z"/>
			</g>
			<g>
				<path fill="#D7E8E8" d="M176.616-85.711c0,1.515-1.242,2.758-2.76,2.758H25.306c-1.52,0-2.756-1.243-2.756-2.758v-143.594
					c0-1.517,1.236-2.756,2.756-2.756h148.55c1.518,0,2.76,1.239,2.76,2.756V-85.711z"/>
			</g>
		</g>
		<g>
			<path fill="#ADD3D8" d="M171.302-79.458c0,1.516-1.236,2.757-2.756,2.757H19.994c-1.517,0-2.759-1.241-2.759-2.757v-143.592
				c0-1.518,1.242-2.757,2.759-2.757h148.552c1.52,0,2.756,1.239,2.756,2.757V-79.458z"/>
		</g>
		<g>
			<path fill="#FFFFFF" d="M170.616-80.286c0,1.518-1.24,2.757-2.756,2.757H19.304c-1.514,0-2.755-1.239-2.755-2.757v-143.59
				c0-1.517,1.241-2.758,2.755-2.758H167.86c1.516,0,2.756,1.241,2.756,2.758V-80.286z"/>
		</g>
		<path fill="#F2FAFA" d="M167.86-226.633H74.563l83.788,149.104h9.51c1.516,0,2.756-1.239,2.756-2.757v-143.59
			C170.616-225.392,169.376-226.633,167.86-226.633z"/>
		<polygon fill="#F2584F" points="174.409,-66.327 193.405,-88.329 193.405,-212.333 174.409,-190.33 		"/>
		<path fill="#FF694F" d="M109.655-190.33c0,10.49-8.506,18.997-19,18.997c-10.494,0-19-8.507-19-18.997H6.404v124.003h168.503
			V-190.33H109.655z"/>
	</g>
</g>
</svg>
