<?xml version="1.0" encoding="utf-8"?>
<!-- Generator: Adobe Illustrator 16.0.0, SVG Export Plug-In . SVG Version: 6.00 Build 0)  -->
<!DOCTYPE svg PUBLIC "-//W3C//DTD SVG 1.1//EN" "http://www.w3.org/Graphics/SVG/1.1/DTD/svg11.dtd">
<svg version="1.1" id="Layer_1" xmlns="http://www.w3.org/2000/svg" xmlns:xlink="http://www.w3.org/1999/xlink" x="0px" y="0px"
	 width="200px" height="200px" viewBox="0 0 200 200" enable-background="new 0 0 200 200" xml:space="preserve">
<g>
	<g>
		<polygon fill="#FF9D00" points="-247.102,440.568 -228.101,418.564 -228.101,294.561 -247.102,316.564 		"/>
		<rect x="-229.098" y="294.561" fill="#FF9D00" width="168.503" height="124.004"/>
		<g>
			<g>
				<path fill="#ADD3D8" d="M-70.202,416.938c0,1.513-1.236,2.756-2.754,2.756h-148.55c-1.52,0-2.762-1.243-2.762-2.756V273.344
					c0-1.516,1.242-2.757,2.762-2.757h148.55c1.518,0,2.754,1.241,2.754,2.757V416.938z"/>
			</g>
			<g>
				<path fill="#D7E8E8" d="M-70.887,416.108c0,1.517-1.242,2.759-2.756,2.759h-148.554c-1.514,0-2.756-1.242-2.756-2.759V272.518
					c0-1.517,1.242-2.756,2.756-2.756h148.554c1.514,0,2.756,1.239,2.756,2.756V416.108z"/>
			</g>
		</g>
		<g>
			<g>
				<path fill="#ADD3D8" d="M-76.2,422.012c0,1.514-1.238,2.754-2.758,2.754h-148.55c-1.514,0-2.754-1.24-2.754-2.754V278.415
					c0-1.513,1.24-2.756,2.754-2.756h148.55c1.52,0,2.758,1.243,2.758,2.756V422.012z"/>
			</g>
			<g>
				<path fill="#D7E8E8" d="M-76.889,421.184c0,1.515-1.24,2.756-2.754,2.756h-148.556c-1.516,0-2.755-1.241-2.755-2.756V277.59
					c0-1.518,1.239-2.756,2.755-2.756h148.556c1.514,0,2.754,1.238,2.754,2.756V421.184z"/>
			</g>
		</g>
		<g>
			<path fill="#ADD3D8" d="M-82.198,427.436c0,1.518-1.242,2.759-2.758,2.759h-148.552c-1.515,0-2.756-1.241-2.756-2.759V283.845
				c0-1.517,1.241-2.756,2.756-2.756h148.552c1.516,0,2.758,1.239,2.758,2.756V427.436z"/>
		</g>
		<g>
			<path fill="#FFFFFF" d="M-82.889,426.609c0,1.518-1.236,2.756-2.756,2.756h-148.552c-1.517,0-2.758-1.238-2.758-2.756V283.02
				c0-1.518,1.241-2.758,2.758-2.758h148.552c1.52,0,2.756,1.24,2.756,2.758V426.609z"/>
		</g>
		<path fill="#F2FAFA" d="M-85.645,280.262h-93.296l83.791,149.104h9.506c1.52,0,2.756-1.238,2.756-2.756V283.02
			C-82.889,281.502-84.125,280.262-85.645,280.262z"/>
		<polygon fill="#FFBB00" points="-79.094,440.568 -60.096,418.564 -60.096,294.561 -79.094,316.564 		"/>
		<path fill="#FFDA00" d="M-143.85,316.564c0,10.491-8.506,18.998-19,18.998c-10.488,0-18.994-8.507-18.994-18.998h-65.258v124.004
			h168.509V316.564H-143.85z"/>
	</g>
	<g>
		<polygon fill="#83B600" points="6.9,440.568 25.9,418.564 25.9,294.561 6.9,316.564 		"/>
		<rect x="24.904" y="294.561" fill="#83B600" width="168.502" height="124.004"/>
		<g>
			<g>
				<path fill="#ADD3D8" d="M183.801,416.938c0,1.513-1.236,2.756-2.756,2.756H32.494c-1.52,0-2.76-1.243-2.76-2.756V273.344
					c0-1.516,1.24-2.757,2.76-2.757h148.551c1.52,0,2.756,1.241,2.756,2.757V416.938z"/>
			</g>
			<g>
				<path fill="#D7E8E8" d="M183.113,416.108c0,1.517-1.242,2.759-2.754,2.759H31.802c-1.514,0-2.756-1.242-2.756-2.759V272.518
					c0-1.517,1.242-2.756,2.756-2.756h148.557c1.512,0,2.754,1.239,2.754,2.756V416.108z"/>
			</g>
		</g>
		<g>
			<g>
				<path fill="#ADD3D8" d="M177.801,422.012c0,1.514-1.238,2.754-2.758,2.754H26.494c-1.514,0-2.756-1.24-2.756-2.754V278.415
					c0-1.513,1.242-2.756,2.756-2.756h148.549c1.52,0,2.758,1.243,2.758,2.756V422.012z"/>
			</g>
			<g>
				<path fill="#D7E8E8" d="M177.113,421.184c0,1.515-1.242,2.756-2.756,2.756H25.8c-1.516,0-2.754-1.241-2.754-2.756V277.59
					c0-1.518,1.238-2.756,2.754-2.756h148.557c1.514,0,2.756,1.238,2.756,2.756V421.184z"/>
			</g>
		</g>
		<g>
			<path fill="#ADD3D8" d="M171.803,427.436c0,1.518-1.242,2.759-2.758,2.759H20.492c-1.514,0-2.756-1.241-2.756-2.759V283.845
				c0-1.517,1.242-2.756,2.756-2.756h148.553c1.516,0,2.758,1.239,2.758,2.756V427.436z"/>
		</g>
		<g>
			<path fill="#FFFFFF" d="M171.111,426.609c0,1.518-1.236,2.756-2.756,2.756H19.802c-1.516,0-2.758-1.238-2.758-2.756V283.02
				c0-1.518,1.242-2.758,2.758-2.758h148.553c1.52,0,2.756,1.24,2.756,2.758V426.609z"/>
		</g>
		<path fill="#F2FAFA" d="M168.355,280.262H75.058l83.792,149.104h9.506c1.52,0,2.756-1.238,2.756-2.756V283.02
			C171.111,281.502,169.875,280.262,168.355,280.262z"/>
		<polygon fill="#9DCD00" points="174.906,440.568 193.904,418.564 193.904,294.561 174.906,316.564 		"/>
		<path fill="#9DEB00" d="M110.152,316.564c0,10.491-8.508,18.998-19.002,18.998c-10.488,0-18.994-8.507-18.994-18.998H6.9v124.004
			h168.508V316.564H110.152z"/>
	</g>
	<g>
		<polygon fill="#009DF0" points="6.898,187.12 25.9,165.121 25.9,41.115 6.898,63.117 		"/>
		<rect x="24.898" y="41.115" fill="#006FE8" width="168.508" height="124.006"/>
		<g>
			<g>
				<path fill="#ADD3D8" d="M183.799,163.491c0,1.513-1.24,2.757-2.754,2.757H32.494c-1.52,0-2.76-1.244-2.76-2.757V19.898
					c0-1.517,1.24-2.759,2.76-2.759h148.551c1.514,0,2.754,1.242,2.754,2.759V163.491z"/>
			</g>
			<g>
				<path fill="#D7E8E8" d="M183.107,162.663c0,1.516-1.236,2.759-2.754,2.759H31.802c-1.516,0-2.762-1.243-2.762-2.759V19.072
					c0-1.517,1.246-2.757,2.762-2.757h148.551c1.518,0,2.754,1.24,2.754,2.757V162.663z"/>
			</g>
		</g>
		<g>
			<g>
				<path fill="#ADD3D8" d="M177.799,168.565c0,1.514-1.242,2.755-2.756,2.755H26.494c-1.52,0-2.756-1.241-2.756-2.755V24.971
					c0-1.515,1.236-2.758,2.756-2.758h148.549c1.514,0,2.756,1.243,2.756,2.758V168.565z"/>
			</g>
			<g>
				<path fill="#D7E8E8" d="M177.109,167.737c0,1.514-1.238,2.757-2.756,2.757H25.8c-1.516,0-2.754-1.243-2.754-2.757V24.145
					c0-1.518,1.238-2.757,2.754-2.757h148.553c1.518,0,2.756,1.239,2.756,2.757V167.737z"/>
			</g>
		</g>
		<g>
			<path fill="#ADD3D8" d="M171.801,173.99c0,1.516-1.24,2.757-2.756,2.757H20.492c-1.52,0-2.758-1.241-2.758-2.757V30.399
				c0-1.519,1.238-2.757,2.758-2.757h148.553c1.516,0,2.756,1.238,2.756,2.757V173.99z"/>
		</g>
		<g>
			<path fill="#FFFFFF" d="M171.111,173.163c0,1.518-1.242,2.757-2.756,2.757H19.8c-1.514,0-2.756-1.239-2.756-2.757V29.573
				c0-1.518,1.242-2.759,2.756-2.759h148.555c1.514,0,2.756,1.241,2.756,2.759V173.163z"/>
		</g>
		<path fill="#F2FAFA" d="M168.355,26.814H75.058l83.79,149.105h9.508c1.514,0,2.756-1.239,2.756-2.757V29.573
			C171.111,28.056,169.869,26.814,168.355,26.814z"/>
		<polygon fill="#009DF0" points="174.904,187.12 193.904,165.121 193.904,41.115 174.904,63.117 		"/>
		<path fill="#00B5FF" d="M110.15,63.117c0,10.491-8.506,19-19,19c-10.494,0-19-8.509-19-19H6.898V187.12h168.504V63.117H110.15z"/>
	</g>
	<g>
		<polygon fill="#C5384F" points="-247.1,187.121 -228.1,165.119 -228.1,41.114 -247.1,63.118 		"/>
		<rect x="-229.102" y="41.114" fill="#C5384F" width="168.505" height="124.005"/>
		<g>
			<g>
				<path fill="#ADD3D8" d="M-70.2,163.49c0,1.514-1.242,2.758-2.756,2.758H-221.51c-1.515,0-2.756-1.244-2.756-2.758V19.896
					c0-1.516,1.241-2.757,2.756-2.757h148.554c1.514,0,2.756,1.241,2.756,2.757V163.49z"/>
			</g>
			<g>
				<path fill="#D7E8E8" d="M-70.889,162.663c0,1.515-1.24,2.758-2.754,2.758h-148.553c-1.514,0-2.761-1.243-2.761-2.758V19.07
					c0-1.516,1.247-2.756,2.761-2.756h148.553c1.514,0,2.754,1.24,2.754,2.756V162.663z"/>
			</g>
		</g>
		<g>
			<g>
				<path fill="#ADD3D8" d="M-76.2,168.564c0,1.514-1.236,2.754-2.756,2.754h-148.553c-1.517,0-2.758-1.24-2.758-2.754V24.969
					c0-1.514,1.241-2.757,2.758-2.757h148.553c1.52,0,2.756,1.243,2.756,2.757V168.564z"/>
			</g>
			<g>
				<path fill="#D7E8E8" d="M-76.887,167.736c0,1.515-1.242,2.758-2.76,2.758h-148.55c-1.52,0-2.756-1.243-2.756-2.758V24.143
					c0-1.517,1.236-2.756,2.756-2.756h148.55c1.518,0,2.76,1.239,2.76,2.756V167.736z"/>
			</g>
		</g>
		<g>
			<path fill="#ADD3D8" d="M-82.202,173.99c0,1.516-1.236,2.757-2.756,2.757H-233.51c-1.517,0-2.759-1.241-2.759-2.757V30.398
				c0-1.518,1.242-2.757,2.759-2.757h148.552c1.52,0,2.756,1.239,2.756,2.757V173.99z"/>
		</g>
		<g>
			<path fill="#FFFFFF" d="M-82.887,173.162c0,1.518-1.24,2.757-2.756,2.757h-148.556c-1.514,0-2.755-1.239-2.755-2.757V29.572
				c0-1.517,1.241-2.758,2.755-2.758h148.556c1.516,0,2.756,1.241,2.756,2.758V173.162z"/>
		</g>
		<path fill="#F2FAFA" d="M-85.643,26.814h-93.297l83.788,149.104h9.51c1.516,0,2.756-1.239,2.756-2.757V29.572
			C-82.887,28.056-84.127,26.814-85.643,26.814z"/>
		<polygon fill="#F2584F" points="-79.094,187.121 -60.098,165.119 -60.098,41.114 -79.094,63.118 		"/>
		<path fill="#FF694F" d="M-143.848,63.118c0,10.49-8.506,18.997-19,18.997c-10.494,0-19-8.507-19-18.997H-247.1v124.003h168.503
			V63.118H-143.848z"/>
	</g>
</g>
</svg>
