<?xml version="1.0" encoding="utf-8"?>
<!-- Generator: Adobe Illustrator 16.0.0, SVG Export Plug-In . SVG Version: 6.00 Build 0)  -->
<!DOCTYPE svg PUBLIC "-//W3C//DTD SVG 1.1//EN" "http://www.w3.org/Graphics/SVG/1.1/DTD/svg11.dtd">
<svg version="1.1" id="Layer_1" xmlns="http://www.w3.org/2000/svg" xmlns:xlink="http://www.w3.org/1999/xlink" x="0px" y="0px"
	 width="200px" height="200px" viewBox="0 0 200 200" enable-background="new 0 0 200 200" xml:space="preserve">
<g>
	<g>
		<polygon fill="#FF9D00" points="6.901,440.568 25.902,418.564 25.902,294.561 6.901,316.564 		"/>
		<rect x="24.905" y="294.561" fill="#FF9D00" width="168.503" height="124.004"/>
		<g>
			<g>
				<path fill="#ADD3D8" d="M183.801,416.938c0,1.513-1.236,2.756-2.754,2.756H32.497c-1.52,0-2.762-1.243-2.762-2.756V273.344
					c0-1.516,1.242-2.757,2.762-2.757h148.55c1.518,0,2.754,1.241,2.754,2.757V416.938z"/>
			</g>
			<g>
				<path fill="#D7E8E8" d="M183.115,416.108c0,1.517-1.242,2.759-2.756,2.759H31.805c-1.514,0-2.756-1.242-2.756-2.759V272.518
					c0-1.517,1.242-2.756,2.756-2.756h148.554c1.514,0,2.756,1.239,2.756,2.756V416.108z"/>
			</g>
		</g>
		<g>
			<g>
				<path fill="#ADD3D8" d="M177.803,422.012c0,1.514-1.238,2.754-2.758,2.754H26.495c-1.514,0-2.754-1.24-2.754-2.754V278.415
					c0-1.513,1.24-2.756,2.754-2.756h148.55c1.52,0,2.758,1.243,2.758,2.756V422.012z"/>
			</g>
			<g>
				<path fill="#D7E8E8" d="M177.113,421.184c0,1.515-1.24,2.756-2.754,2.756H25.803c-1.516,0-2.755-1.241-2.755-2.756V277.59
					c0-1.518,1.239-2.756,2.755-2.756h148.556c1.514,0,2.754,1.238,2.754,2.756V421.184z"/>
			</g>
		</g>
		<g>
			<path fill="#ADD3D8" d="M171.805,427.436c0,1.518-1.242,2.759-2.758,2.759H20.495c-1.515,0-2.756-1.241-2.756-2.759V283.845
				c0-1.517,1.241-2.756,2.756-2.756h148.552c1.516,0,2.758,1.239,2.758,2.756V427.436z"/>
		</g>
		<g>
			<path fill="#FFFFFF" d="M171.113,426.609c0,1.518-1.236,2.756-2.756,2.756H19.805c-1.517,0-2.758-1.238-2.758-2.756V283.02
				c0-1.518,1.241-2.758,2.758-2.758h148.552c1.52,0,2.756,1.24,2.756,2.758V426.609z"/>
		</g>
		<path fill="#F2FAFA" d="M168.357,280.262H75.061l83.791,149.104h9.506c1.52,0,2.756-1.238,2.756-2.756V283.02
			C171.113,281.502,169.877,280.262,168.357,280.262z"/>
		<polygon fill="#FFBB00" points="174.908,440.568 193.906,418.564 193.906,294.561 174.908,316.564 		"/>
		<path fill="#FFDA00" d="M110.152,316.564c0,10.491-8.506,18.998-19,18.998c-10.488,0-18.994-8.507-18.994-18.998H6.901v124.004
			H175.41V316.564H110.152z"/>
	</g>
	<g>
		<polygon fill="#83B600" points="260.902,440.568 279.902,418.564 279.902,294.561 260.902,316.564 		"/>
		<rect x="278.906" y="294.561" fill="#83B600" width="168.502" height="124.004"/>
		<g>
			<g>
				<path fill="#ADD3D8" d="M437.803,416.938c0,1.513-1.236,2.756-2.756,2.756H286.496c-1.52,0-2.76-1.243-2.76-2.756V273.344
					c0-1.516,1.24-2.757,2.76-2.757h148.551c1.52,0,2.756,1.241,2.756,2.757V416.938z"/>
			</g>
			<g>
				<path fill="#D7E8E8" d="M437.115,416.108c0,1.517-1.242,2.759-2.754,2.759H285.805c-1.514,0-2.756-1.242-2.756-2.759V272.518
					c0-1.517,1.242-2.756,2.756-2.756h148.557c1.512,0,2.754,1.239,2.754,2.756V416.108z"/>
			</g>
		</g>
		<g>
			<g>
				<path fill="#ADD3D8" d="M431.803,422.012c0,1.514-1.238,2.754-2.758,2.754H280.496c-1.514,0-2.756-1.24-2.756-2.754V278.415
					c0-1.513,1.242-2.756,2.756-2.756h148.549c1.52,0,2.758,1.243,2.758,2.756V422.012z"/>
			</g>
			<g>
				<path fill="#D7E8E8" d="M431.115,421.184c0,1.515-1.242,2.756-2.756,2.756H279.803c-1.516,0-2.754-1.241-2.754-2.756V277.59
					c0-1.518,1.238-2.756,2.754-2.756h148.557c1.514,0,2.756,1.238,2.756,2.756V421.184z"/>
			</g>
		</g>
		<g>
			<path fill="#ADD3D8" d="M425.805,427.436c0,1.518-1.242,2.759-2.758,2.759H274.494c-1.514,0-2.756-1.241-2.756-2.759V283.845
				c0-1.517,1.242-2.756,2.756-2.756h148.553c1.516,0,2.758,1.239,2.758,2.756V427.436z"/>
		</g>
		<g>
			<path fill="#FFFFFF" d="M425.113,426.609c0,1.518-1.236,2.756-2.756,2.756H273.805c-1.516,0-2.758-1.238-2.758-2.756V283.02
				c0-1.518,1.242-2.758,2.758-2.758h148.553c1.52,0,2.756,1.24,2.756,2.758V426.609z"/>
		</g>
		<path fill="#F2FAFA" d="M422.357,280.262h-93.297l83.791,149.104h9.506c1.52,0,2.756-1.238,2.756-2.756V283.02
			C425.113,281.502,423.877,280.262,422.357,280.262z"/>
		<polygon fill="#9DCD00" points="428.908,440.568 447.906,418.564 447.906,294.561 428.908,316.564 		"/>
		<path fill="#9DEB00" d="M364.154,316.564c0,10.491-8.508,18.998-19.002,18.998c-10.488,0-18.994-8.507-18.994-18.998h-65.256
			v124.004H429.41V316.564H364.154z"/>
	</g>
	<g>
		<polygon fill="#009DF0" points="260.9,187.12 279.902,165.121 279.902,41.115 260.9,63.117 		"/>
		<rect x="278.9" y="41.115" fill="#006FE8" width="168.508" height="124.006"/>
		<g>
			<g>
				<path fill="#ADD3D8" d="M437.801,163.491c0,1.513-1.24,2.757-2.754,2.757H286.496c-1.52,0-2.76-1.244-2.76-2.757V19.898
					c0-1.517,1.24-2.759,2.76-2.759h148.551c1.514,0,2.754,1.242,2.754,2.759V163.491z"/>
			</g>
			<g>
				<path fill="#D7E8E8" d="M437.109,162.663c0,1.516-1.236,2.759-2.754,2.759H285.805c-1.516,0-2.762-1.243-2.762-2.759V19.072
					c0-1.517,1.246-2.757,2.762-2.757h148.551c1.518,0,2.754,1.24,2.754,2.757V162.663z"/>
			</g>
		</g>
		<g>
			<g>
				<path fill="#ADD3D8" d="M431.801,168.565c0,1.514-1.242,2.755-2.756,2.755H280.496c-1.52,0-2.756-1.241-2.756-2.755V24.971
					c0-1.515,1.236-2.758,2.756-2.758h148.549c1.514,0,2.756,1.243,2.756,2.758V168.565z"/>
			</g>
			<g>
				<path fill="#D7E8E8" d="M431.111,167.737c0,1.514-1.238,2.757-2.756,2.757H279.803c-1.516,0-2.754-1.243-2.754-2.757V24.145
					c0-1.518,1.238-2.757,2.754-2.757h148.553c1.518,0,2.756,1.239,2.756,2.757V167.737z"/>
			</g>
		</g>
		<g>
			<path fill="#ADD3D8" d="M425.803,173.99c0,1.516-1.24,2.757-2.756,2.757H274.494c-1.52,0-2.758-1.241-2.758-2.757V30.399
				c0-1.519,1.238-2.757,2.758-2.757h148.553c1.516,0,2.756,1.238,2.756,2.757V173.99z"/>
		</g>
		<g>
			<path fill="#FFFFFF" d="M425.113,173.163c0,1.518-1.242,2.757-2.756,2.757H273.803c-1.514,0-2.756-1.239-2.756-2.757V29.573
				c0-1.518,1.242-2.759,2.756-2.759h148.555c1.514,0,2.756,1.241,2.756,2.759V173.163z"/>
		</g>
		<path fill="#F2FAFA" d="M422.357,26.814h-93.297L412.85,175.92h9.508c1.514,0,2.756-1.239,2.756-2.757V29.573
			C425.113,28.056,423.871,26.814,422.357,26.814z"/>
		<polygon fill="#009DF0" points="428.906,187.12 447.906,165.121 447.906,41.115 428.906,63.117 		"/>
		<path fill="#00B5FF" d="M364.152,63.117c0,10.491-8.506,19-19,19s-19-8.509-19-19H260.9V187.12h168.504V63.117H364.152z"/>
	</g>
	<g>
		<polygon fill="#C5384F" points="6.903,187.121 25.903,165.119 25.903,41.114 6.903,63.118 		"/>
		<rect x="24.901" y="41.114" fill="#C5384F" width="168.505" height="124.005"/>
		<g>
			<g>
				<path fill="#ADD3D8" d="M183.803,163.49c0,1.514-1.242,2.758-2.756,2.758H32.493c-1.515,0-2.756-1.244-2.756-2.758V19.896
					c0-1.516,1.241-2.757,2.756-2.757h148.554c1.514,0,2.756,1.241,2.756,2.757V163.49z"/>
			</g>
			<g>
				<path fill="#D7E8E8" d="M183.113,162.663c0,1.515-1.24,2.758-2.754,2.758H31.806c-1.514,0-2.761-1.243-2.761-2.758V19.07
					c0-1.516,1.247-2.756,2.761-2.756h148.553c1.514,0,2.754,1.24,2.754,2.756V162.663z"/>
			</g>
		</g>
		<g>
			<g>
				<path fill="#ADD3D8" d="M177.803,168.564c0,1.514-1.236,2.754-2.756,2.754H26.494c-1.517,0-2.758-1.24-2.758-2.754V24.969
					c0-1.514,1.241-2.757,2.758-2.757h148.553c1.52,0,2.756,1.243,2.756,2.757V168.564z"/>
			</g>
			<g>
				<path fill="#D7E8E8" d="M177.115,167.736c0,1.515-1.242,2.758-2.76,2.758H25.805c-1.52,0-2.756-1.243-2.756-2.758V24.143
					c0-1.517,1.236-2.756,2.756-2.756h148.55c1.518,0,2.76,1.239,2.76,2.756V167.736z"/>
			</g>
		</g>
		<g>
			<path fill="#ADD3D8" d="M171.801,173.99c0,1.516-1.236,2.757-2.756,2.757H20.493c-1.517,0-2.759-1.241-2.759-2.757V30.398
				c0-1.518,1.242-2.757,2.759-2.757h148.552c1.52,0,2.756,1.239,2.756,2.757V173.99z"/>
		</g>
		<g>
			<path fill="#FFFFFF" d="M171.115,173.162c0,1.518-1.24,2.757-2.756,2.757H19.803c-1.514,0-2.755-1.239-2.755-2.757V29.572
				c0-1.517,1.241-2.758,2.755-2.758h148.556c1.516,0,2.756,1.241,2.756,2.758V173.162z"/>
		</g>
		<path fill="#F2FAFA" d="M168.359,26.814H75.062l83.788,149.104h9.51c1.516,0,2.756-1.239,2.756-2.757V29.572
			C171.115,28.056,169.875,26.814,168.359,26.814z"/>
		<polygon fill="#F2584F" points="174.908,187.121 193.904,165.119 193.904,41.114 174.908,63.118 		"/>
		<path fill="#FF694F" d="M110.154,63.118c0,10.49-8.506,18.997-19,18.997c-10.494,0-19-8.507-19-18.997H6.903v124.003h168.503
			V63.118H110.154z"/>
	</g>
</g>
</svg>
