<?xml version="1.0" encoding="utf-8"?>
<!-- Generator: Adobe Illustrator 16.0.0, SVG Export Plug-In . SVG Version: 6.00 Build 0)  -->
<!DOCTYPE svg PUBLIC "-//W3C//DTD SVG 1.1//EN" "http://www.w3.org/Graphics/SVG/1.1/DTD/svg11.dtd">
<svg version="1.1" id="Layer_1" xmlns="http://www.w3.org/2000/svg" xmlns:xlink="http://www.w3.org/1999/xlink" x="0px" y="0px"
	 width="60px" height="60px" viewBox="0 0 60 60" enable-background="new 0 0 60 60" xml:space="preserve">
<g>
	<g>
		<path fill="#011890" d="M30.022,50.192c-0.496,0-0.995-0.188-1.375-0.567L10.34,31.363c-4.925-4.926-4.925-12.935-0.002-17.858
			c2.385-2.385,5.555-3.698,8.928-3.698c3.372,0,6.544,1.313,8.927,3.698L30,15.312l1.808-1.806
			c2.385-2.385,5.555-3.698,8.927-3.698c3.373,0,6.543,1.313,8.928,3.698c4.923,4.923,4.923,12.932,0,17.856L31.4,49.623
			C31.021,50.003,30.521,50.192,30.022,50.192z M19.265,13.701c-2.333,0-4.526,0.909-6.175,2.557c-3.404,3.405-3.404,8.944,0,12.35
			l16.93,16.887l16.89-16.887c3.403-3.406,3.403-8.944,0-12.35c-1.649-1.648-3.842-2.557-6.176-2.557
			c-2.333,0-4.525,0.909-6.175,2.557l-3.182,3.183c-0.761,0.76-1.994,0.76-2.753,0l-3.185-3.183
			C23.792,14.609,21.598,13.701,19.265,13.701z"/>
	</g>
</g>
</svg>
