<?xml version="1.0" encoding="utf-8"?>
<!-- Generator: Adobe Illustrator 16.0.0, SVG Export Plug-In . SVG Version: 6.00 Build 0)  -->
<!DOCTYPE svg PUBLIC "-//W3C//DTD SVG 1.1//EN" "http://www.w3.org/Graphics/SVG/1.1/DTD/svg11.dtd">
<svg version="1.1" id="Layer_1" xmlns="http://www.w3.org/2000/svg" xmlns:xlink="http://www.w3.org/1999/xlink" x="0px" y="0px"
	 width="100px" height="100px" viewBox="0 0 100 100" enable-background="new 0 0 100 100" xml:space="preserve">
<g>
	<path fill="#7DCE00" d="M49.534,0.613c-18.678,0-33.819,15.142-33.819,33.819c0,23.64,33.819,64.181,33.819,64.181
		s33.819-40.541,33.819-64.181C83.354,15.755,68.211,0.613,49.534,0.613z M49.534,48.118c-8.227,0-14.896-6.669-14.896-14.896
		s6.668-14.896,14.896-14.896c8.227,0,14.897,6.669,14.897,14.896S57.761,48.118,49.534,48.118z"/>
	<path fill="#AAE900" d="M34.639,33.222c0-8.227,6.668-14.895,14.896-14.896V0.613c-18.678,0-33.819,15.142-33.819,33.819
		c0,23.64,33.819,64.181,33.819,64.181V48.118C41.307,48.117,34.639,41.448,34.639,33.222z"/>
</g>
</svg>
