<?xml version="1.0" encoding="utf-8"?>
<!-- Generator: Adobe Illustrator 16.0.0, SVG Export Plug-In . SVG Version: 6.00 Build 0)  -->
<!DOCTYPE svg PUBLIC "-//W3C//DTD SVG 1.1//EN" "http://www.w3.org/Graphics/SVG/1.1/DTD/svg11.dtd">
<svg version="1.1" id="Layer_1" xmlns="http://www.w3.org/2000/svg" xmlns:xlink="http://www.w3.org/1999/xlink" x="0px" y="0px"
	 width="100px" height="100px" viewBox="0 0 100 100" enable-background="new 0 0 100 100" xml:space="preserve">
<g>
	<path fill="#54888E" d="M29.624,45.401c-12.021,7.588-14.068,9.122-17.137,8.866c-2.766-0.23-4.945-2.213-4.945-4.945
		c0-2.49,1.842-4.543,4.237-4.888c-0.272-0.025-0.547-0.04-0.826-0.04C6.008,44.395,2,48.404,2,53.348
		c0,6.036,4.604,9.02,7.929,10.214c6.441,2.312,15.773,2.301,26.003-0.511c10.231-2.814,13.386-6.14,13.369-11.323
		S43.225,36.816,29.624,45.401z"/>
	<path fill="#54888E" d="M72.377,45.401c12.021,7.588,14.068,9.122,17.137,8.866c2.766-0.23,4.945-2.213,4.945-4.945
		c0-2.49-1.844-4.543-4.238-4.888c0.271-0.025,0.549-0.04,0.828-0.04c4.943,0,8.951,4.009,8.951,8.953
		c0,6.036-4.604,9.02-7.93,10.214c-6.439,2.312-15.771,2.301-26.002-0.511c-10.23-2.814-13.385-6.14-13.369-11.323
		C52.717,46.544,58.775,36.816,72.377,45.401z"/>
</g>
</svg>
