<?xml version="1.0" encoding="utf-8"?>
<!-- Generator: Adobe Illustrator 16.0.0, SVG Export Plug-In . SVG Version: 6.00 Build 0)  -->
<!DOCTYPE svg PUBLIC "-//W3C//DTD SVG 1.1//EN" "http://www.w3.org/Graphics/SVG/1.1/DTD/svg11.dtd">
<svg version="1.1" id="Layer_1" xmlns="http://www.w3.org/2000/svg" xmlns:xlink="http://www.w3.org/1999/xlink" x="0px" y="0px"
	 width="100px" height="100px" viewBox="0 0 100 100" enable-background="new 0 0 100 100" xml:space="preserve">
<g>
	<path fill="#CD7561" d="M76.829,50.071H52.725V10.159H0.563v75.872h26.871h25.29h45.839V71.805
		C98.563,59.802,88.832,50.071,76.829,50.071z"/>
	<path fill="#AD7461" d="M32.44,79.708l66.123,0.493v-8.396c0-12.003-9.731-21.734-21.734-21.734H52.725V10.159H32.44V79.708z"/>
	<path fill="#54888E" d="M0.563,79.708v5.444c0,2.793,2.264,5.058,5.056,5.058c2.345,0,4.311-1.599,4.883-3.763
		c0.573,2.164,2.539,3.763,4.883,3.763c2.344,0,4.31-1.599,4.882-3.765c0.573,2.166,2.539,3.765,4.883,3.765
		c2.345,0,4.311-1.599,4.883-3.765c0.572,2.166,2.539,3.765,4.883,3.765c2.344,0,4.31-1.599,4.883-3.765
		c0.572,2.166,2.538,3.765,4.882,3.765c2.344,0,4.31-1.599,4.882-3.765c0.573,2.166,2.538,3.765,4.883,3.765
		s4.311-1.599,4.883-3.763c0.572,2.164,2.538,3.763,4.883,3.763s4.311-1.6,4.883-3.766c0.572,2.166,2.538,3.766,4.883,3.766
		s4.311-1.599,4.882-3.765c0.573,2.166,2.538,3.765,4.883,3.765s4.312-1.6,4.883-3.766c0.572,2.166,2.538,3.766,4.883,3.766
		c2.792,0,5.056-2.265,5.056-5.058v-5.444"/>
	<rect x="9.257" y="29.917" fill="#FFDE00" width="15.016" height="8.694"/>
	<line fill="#54888E" stroke="#54888E" stroke-width="4" x1="52.725" y1="18.853" x2="40.87" y2="18.853"/>
	<line fill="#54888E" stroke="#54888E" stroke-width="4" x1="52.725" y1="27.546" x2="40.87" y2="27.546"/>
	<line fill="#54888E" stroke="#54888E" stroke-width="4" x1="52.725" y1="36.24" x2="40.87" y2="36.24"/>
	<line fill="#54888E" stroke="#54888E" stroke-width="4" x1="52.725" y1="44.933" x2="40.87" y2="44.933"/>
</g>
</svg>
