<?xml version="1.0" encoding="utf-8"?>
<!-- Generator: Adobe Illustrator 16.0.0, SVG Export Plug-In . SVG Version: 6.00 Build 0)  -->
<!DOCTYPE svg PUBLIC "-//W3C//DTD SVG 1.1//EN" "http://www.w3.org/Graphics/SVG/1.1/DTD/svg11.dtd">
<svg version="1.1" id="Layer_1" xmlns="http://www.w3.org/2000/svg" xmlns:xlink="http://www.w3.org/1999/xlink" x="0px" y="0px"
	 width="100px" height="100px" viewBox="0 0 100 100" enable-background="new 0 0 100 100" xml:space="preserve">
<g>
	<path fill="#FF8061" d="M38.853,7.468c12.901,12.9,11.467,43.001,11.467,43.001s-30.1,1.434-43-11.467
		c-8.707-8.708-8.707-22.826,0-31.534C16.027-1.24,30.145-1.24,38.853,7.468z"/>
	<path fill="#CD7561" d="M92.258,39.002c-12.9,12.901-43,11.467-43,11.467s-1.434-30.1,11.465-43.001
		c8.709-8.708,22.826-8.708,31.535,0C100.966,16.177,100.966,30.294,92.258,39.002z"/>
	<path fill="#CD7561" d="M60.725,92.408c-12.9-12.901-11.466-43.001-11.466-43.001s30.099-1.434,43,11.465
		c8.707,8.709,8.707,22.827,0,31.536C83.55,101.114,69.433,101.114,60.725,92.408z"/>
	<path fill="#FF8061" d="M7.319,60.872c12.9-12.899,43-11.465,43-11.465s1.435,30.1-11.466,43.001
		c-8.708,8.706-22.825,8.706-31.534,0C-1.388,83.699-1.388,69.581,7.319,60.872z"/>
	<circle fill="#FFDE00" cx="49.788" cy="49.938" r="16.333"/>
	<path fill="#FFFA00" d="M45.705,34.119c-7.043,1.813-12.25,8.208-12.25,15.818c0,7.611,5.207,14.005,12.25,15.819
		c7.046-1.814,12.25-8.208,12.25-15.819C57.955,42.327,52.751,35.933,45.705,34.119z"/>
</g>
</svg>
