<?xml version="1.0" encoding="utf-8"?>
<!-- Generator: Adobe Illustrator 16.0.0, SVG Export Plug-In . SVG Version: 6.00 Build 0)  -->
<!DOCTYPE svg PUBLIC "-//W3C//DTD SVG 1.1//EN" "http://www.w3.org/Graphics/SVG/1.1/DTD/svg11.dtd">
<svg version="1.1" id="Layer_1" xmlns="http://www.w3.org/2000/svg" xmlns:xlink="http://www.w3.org/1999/xlink" x="0px" y="0px"
	 width="100px" height="100px" viewBox="0 0 100 100" enable-background="new 0 0 100 100" xml:space="preserve">
<g>
	<g>
		<rect x="51.477" y="7.455" fill="#FF8061" width="11.224" height="55.328"/>
		<rect x="40.253" y="7.455" fill="#FFDE00" width="11.223" height="55.328"/>
		<rect x="29.031" y="7.455" fill="#AAE900" width="11.223" height="55.328"/>
		<rect x="17.807" y="7.455" fill="#00C2FF" width="11.224" height="55.328"/>
	</g>
	<path fill="#B9DADF" d="M87.781,59.89h-8.137v-7.231h8.137c2.492,0,4.521-2.027,4.521-4.521c0-2.493-2.028-4.521-4.521-4.521
		h-8.137v-7.232h8.137c6.48,0,11.753,5.272,11.753,11.753C99.534,54.619,94.262,59.89,87.781,59.89L87.781,59.89z"/>
	<path fill="#B9DADF" d="M18.998,92.075h43.184c10.525-6.996,17.463-18.961,17.463-32.546V33.492H1.534v26.037
		C1.534,73.114,8.472,85.079,18.998,92.075z"/>
	<path fill="#FFFFFF" d="M66.626,59.529V33.492H1.534v26.037c0,13.585,6.938,25.55,17.463,32.546h30.165
		C59.688,85.079,66.626,73.114,66.626,59.529z"/>
	<rect x="1.534" y="33.492" fill="#54888E" width="78.11" height="13.019"/>
	<rect x="66.626" y="33.492" fill="#557B7D" width="13.019" height="13.019"/>
</g>
</svg>
