<?xml version="1.0" encoding="utf-8"?>
<!-- Generator: Adobe Illustrator 16.0.0, SVG Export Plug-In . SVG Version: 6.00 Build 0)  -->
<!DOCTYPE svg PUBLIC "-//W3C//DTD SVG 1.1//EN" "http://www.w3.org/Graphics/SVG/1.1/DTD/svg11.dtd">
<svg version="1.1" id="Layer_1" xmlns="http://www.w3.org/2000/svg" xmlns:xlink="http://www.w3.org/1999/xlink" x="0px" y="0px"
	 width="100px" height="100px" viewBox="0 0 100 100" enable-background="new 0 0 100 100" xml:space="preserve">
<g>
	<path fill="#CD7561" d="M60.68,31.211c0,3.852-3.151,7.003-7.004,7.003h-8.4c-3.853,0-7.004-3.151-7.004-7.003V6.698
		c0-3.852,2.981-5.979,6.623-4.727l9.161,3.15c3.643,1.252,6.624,5.428,6.624,9.28V31.211z"/>
	<path fill="#FF8061" d="M39.539,3.04c-0.793,0.881-1.267,2.132-1.267,3.659v24.513c0,0.317,0.029,0.626,0.07,0.934h11.136V14.168
		C49.478,8.408,45.131,3.669,39.539,3.04z"/>
	<rect x="33.835" y="44.984" fill="#B9DADF" width="31.282" height="54.628"/>
	<rect x="49.476" y="44.984" fill="#91BBC1" width="15.642" height="54.628"/>
	<rect x="36.636" y="28.176" fill="#91BBC1" width="25.679" height="16.809"/>
	<rect x="49.476" y="28.176" fill="#54888E" width="12.84" height="16.809"/>
</g>
</svg>
