<?xml version="1.0" encoding="utf-8"?>
<!-- Generator: Adobe Illustrator 16.0.0, SVG Export Plug-In . SVG Version: 6.00 Build 0)  -->
<!DOCTYPE svg PUBLIC "-//W3C//DTD SVG 1.1//EN" "http://www.w3.org/Graphics/SVG/1.1/DTD/svg11.dtd">
<svg version="1.1" id="Layer_1" xmlns="http://www.w3.org/2000/svg" xmlns:xlink="http://www.w3.org/1999/xlink" x="0px" y="0px"
	 width="60px" height="60px" viewBox="0 0 60 60" enable-background="new 0 0 60 60" xml:space="preserve">
<g>
	<path fill="#011890" d="M30,53.105C17.261,53.105,6.895,42.74,6.895,30C6.895,17.261,17.261,6.895,30,6.895
		c12.741,0,23.105,10.366,23.105,23.104C53.105,42.74,42.741,53.105,30,53.105z M30,11.42c-10.246,0-18.58,8.335-18.58,18.58
		c0,10.245,8.334,18.579,18.58,18.579c10.245,0,18.579-8.334,18.579-18.579C48.579,19.755,40.245,11.42,30,11.42z"/>
	<g>
		<circle fill="#011890" cx="20.063" cy="30" r="3.151"/>
		<circle fill="#011890" cx="30" cy="30" r="3.15"/>
		<circle fill="#011890" cx="39.937" cy="30" r="3.151"/>
	</g>
</g>
</svg>
