<?xml version="1.0" encoding="utf-8"?>
<!-- Generator: Adobe Illustrator 16.0.0, SVG Export Plug-In . SVG Version: 6.00 Build 0)  -->
<!DOCTYPE svg PUBLIC "-//W3C//DTD SVG 1.1//EN" "http://www.w3.org/Graphics/SVG/1.1/DTD/svg11.dtd">
<svg version="1.1" id="Layer_1" xmlns="http://www.w3.org/2000/svg" xmlns:xlink="http://www.w3.org/1999/xlink" x="0px" y="0px"
	 width="455px" height="450px" viewBox="0 0 455 450" enable-background="new 0 0 455 450" xml:space="preserve">
<g>
	<g>
		<path fill="#008BFF" d="M414.299,424.095c0,3.645-2.979,6.622-6.621,6.622H50.696c-3.642,0-6.623-2.978-6.623-6.622V79.029
			c0-3.64,2.98-6.623,6.623-6.623h356.982c3.643,0,6.621,2.983,6.621,6.623V424.095z"/>
	</g>
	<g>
		<path fill="#00C2FF" d="M412.646,422.104c0,3.654-2.982,6.628-6.625,6.628H49.039c-3.647,0-6.625-2.974-6.625-6.628V77.043
			c0-3.64,2.978-6.617,6.625-6.617h356.982c3.643,0,6.625,2.978,6.625,6.617V422.104z"/>
	</g>
	<path fill="#00A9FF" d="M406.021,70.426H181.827l201.349,358.306h22.846c3.643,0,6.625-2.974,6.625-6.628V77.043
		C412.646,73.404,409.664,70.426,406.021,70.426z"/>
</g>
<g>
	<circle opacity="0.55" fill="#FFFFFF" cx="379.612" cy="81.025" r="27.241"/>
	<g>
		<path fill="#FFFFFF" d="M396.577,96.886c-6.602-7.207-2.878-13.505,8.275-13.995l22.209-0.976c11.153-0.49,11.153-1.292,0-1.782
			l-22.209-0.976c-11.153-0.49-14.877-6.788-8.275-13.996s6.105-7.704-1.103-1.102s-13.506,2.877-13.996-8.276l-0.975-22.211
			c-0.49-11.153-1.292-11.153-1.781,0l-0.977,22.208c-0.489,11.153-6.788,14.878-13.995,8.278s-7.704-6.104-1.104,1.104
			s2.876,13.505-8.277,13.996l-22.209,0.976c-11.153,0.49-11.153,1.292,0,1.782l22.211,0.976c11.153,0.49,14.878,6.788,8.276,13.995
			s-6.104,7.703,1.103,1.103s13.506-2.876,13.995,8.277l0.977,22.208c0.489,11.153,1.291,11.153,1.781,0l0.975-22.21
			c0.49-11.153,6.788-14.878,13.996-8.276S403.179,104.093,396.577,96.886z"/>
	</g>
	<circle opacity="0.55" fill="#FFFFFF" cx="379.612" cy="81.025" r="15.769"/>
	<path fill="#FFFFFF" d="M424.303,43.576c-0.883-0.963-0.539-1.799,0.77-1.857l27.947-1.226c1.307-0.058,1.307-0.151,0-0.21
		l-27.947-1.228c-1.309-0.056-1.652-0.894-0.77-1.856l9.293-10.146c0.883-0.966,0.816-1.033-0.148-0.15l-10.148,9.294
		c-0.963,0.884-1.799,0.535-1.855-0.769l-1.229-27.949c-0.055-1.308-0.15-1.308-0.209,0l-1.227,27.949
		c-0.055,1.304-0.891,1.652-1.855,0.769l-10.148-9.294c-0.965-0.883-1.031-0.815-0.148,0.15l9.295,10.146
		c0.883,0.963,0.535,1.801-0.77,1.856l-27.949,1.228c-1.305,0.059-1.305,0.152,0,0.21l27.949,1.226
		c1.305,0.059,1.652,0.895,0.77,1.857l-9.295,10.147c-0.883,0.966-0.816,1.031,0.148,0.148l10.148-9.292
		c0.965-0.884,1.801-0.538,1.855,0.769l1.227,27.947c0.059,1.306,0.154,1.306,0.209,0l1.229-27.947
		c0.057-1.307,0.893-1.652,1.855-0.769l10.148,9.292c0.965,0.883,1.031,0.817,0.148-0.148L424.303,43.576z"/>
	<path fill="#FFFFFF" d="M441.373,61.224c-0.375-0.41-0.229-0.767,0.326-0.792l11.885-0.52c0.555-0.025,0.555-0.064,0-0.09
		l-11.885-0.521c-0.555-0.024-0.701-0.379-0.326-0.791l3.951-4.313c0.375-0.412,0.346-0.437-0.064-0.062l-4.313,3.95
		c-0.41,0.377-0.766,0.229-0.791-0.326l-0.521-11.884c-0.023-0.555-0.063-0.555-0.09,0l-0.521,11.884
		c-0.023,0.553-0.379,0.703-0.789,0.326l-4.314-3.95c-0.41-0.375-0.438-0.351-0.061,0.062l3.951,4.313
		c0.375,0.412,0.227,0.767-0.33,0.791L425.6,59.822c-0.555,0.025-0.555,0.064,0,0.09l11.881,0.52
		c0.557,0.025,0.705,0.382,0.33,0.792l-3.951,4.313c-0.377,0.41-0.35,0.438,0.061,0.063l4.314-3.95
		c0.41-0.376,0.766-0.229,0.789,0.326l0.521,11.884c0.027,0.553,0.066,0.553,0.09,0l0.521-11.884
		c0.025-0.555,0.381-0.702,0.791-0.328l4.313,3.952c0.41,0.375,0.439,0.347,0.064-0.063L441.373,61.224z"/>
</g>
<g>
	<path fill="#FFFFFF" d="M282.773,279.584h-48.939v-48.938c0-3.292-2.664-5.959-5.958-5.959c-3.294,0-5.958,2.667-5.958,5.959
		v48.938h-48.94c-3.294,0-5.958,2.667-5.958,5.959s2.664,5.959,5.958,5.959h48.94v48.939c0,3.292,2.664,5.959,5.958,5.959
		c3.294,0,5.958-2.667,5.958-5.959v-48.939h48.939c3.293,0,5.957-2.667,5.957-5.959S286.066,279.584,282.773,279.584z"/>
	<text transform="matrix(1 0 0 1 96.5767 176.8296)" fill="#FFFFFF" font-family="'Montserrat-Regular'" font-size="26">CREATE NEW CARD</text>
</g>
</svg>
