<?xml version="1.0" encoding="utf-8"?>
<!-- Generator: Adobe Illustrator 16.0.0, SVG Export Plug-In . SVG Version: 6.00 Build 0)  -->
<!DOCTYPE svg PUBLIC "-//W3C//DTD SVG 1.1//EN" "http://www.w3.org/Graphics/SVG/1.1/DTD/svg11.dtd">
<svg version="1.1" id="Layer_1" xmlns="http://www.w3.org/2000/svg" xmlns:xlink="http://www.w3.org/1999/xlink" x="0px" y="0px"
	 width="425.197px" height="283.464px" viewBox="0 0 425.197 283.464" enable-background="new 0 0 425.197 283.464"
	 xml:space="preserve">
<path fill="none" stroke="#FFFFFF" d="M50.65,201.723L66.983,77.057l-3,27.666c0,0,14.303-35.886,42.667-27.666
	c31.681,9.182,12.667,63.333-14.667,62s-21.113-28.805,6.887-10.805c28,18,47.612,15.231,61.78-1.861
	c12.648-15.26,25.5-41.668,11.5-49.234c-11.36-6.14-23,9.066-20.167,30.303c3.135,23.497,22.392,33.608,37.667,31.707
	c12.917-1.607,20.172-17.59,20.172-17.59c-2.158-6.034-2.57-13.049-0.765-20.094c4.283-16.718,19.426-27.281,33.825-23.592
	c14.399,3.689,22.6,20.232,18.314,36.949c-4.28,16.719-19.426,27.28-33.823,23.592c-8.331-2.135-14.587-8.571-17.551-16.855
	l52.459-13.881c0,0-5.632,83.361-28.632,96.028c-23,12.667-35-24.198-6.666-35.333c28.332-11.136,59.168-30.926,66.188-42.285
	c-3.841-6.886-5.095-15.729-2.815-24.623c4.283-16.718,19.427-27.281,33.823-23.592c12.334,3.16,20.112,15.752,19.399,29.805
	l30.036,19.695c-6.667,10.334-37,29.864-65.334,41c-28.334,11.135-16.333,48,6.667,35.333s28.631-96.028,28.631-96.028
	c-0.119,2.353-0.469,4.747-1.083,7.145c-4.283,16.719-19.428,27.28-33.825,23.592c-6.738-1.727-12.12-6.269-15.499-12.326"/>
<path fill="#FFFFFF" stroke="#FFFFFF" stroke-width="0.25" stroke-linecap="round" d="M212.939,116.775c0,0,0.985,4.932,2.722,7.553
	c1.734,2.622,41.724-10.986,41.724-10.986s1.487-4.619,0.992-8.677c-0.496-4.057-27.278,3.746-27.278,3.746L212.939,116.775z"/>
<path fill="#FFFFFF" stroke="#FFFFFF" stroke-width="0.25" stroke-linecap="round" d="M346.974,114.732c0,0,0.75-9.844,0.595-10.25
	c-0.156-0.406,27.219,16.438,27.219,16.438s-7.031,7.531-7.469,7.688C366.88,128.765,346.974,114.732,346.974,114.732z"/>
</svg>
