<?xml version="1.0" encoding="utf-8"?>
<!-- Generator: Adobe Illustrator 16.0.0, SVG Export Plug-In . SVG Version: 6.00 Build 0)  -->
<!DOCTYPE svg PUBLIC "-//W3C//DTD SVG 1.1//EN" "http://www.w3.org/Graphics/SVG/1.1/DTD/svg11.dtd">
<svg version="1.1" id="Layer_1" xmlns="http://www.w3.org/2000/svg" xmlns:xlink="http://www.w3.org/1999/xlink" x="0px" y="0px"
	 width="260px" height="130px" viewBox="0 0 260 130" style="enable-background:new 0 0 260 130;" xml:space="preserve">
<path style="fill:#FFFFFF;" d="M9.212,113.669c-0.13,0-0.262-0.008-0.395-0.025c-1.648-0.217-2.811-1.729-2.596-3.377l12.297-93.854
	c0.217-1.649,1.727-2.813,3.377-2.594c1.65,0.216,2.811,1.727,2.596,3.376l-12.297,93.853
	C11.997,112.565,10.702,113.669,9.212,113.669L9.212,113.669z"/>
<path style="fill:#FFFFFF;" d="M71.194,67.581c-5.743,0-11.978-1.613-18.691-4.84c-3.659,2.521-7.835,3.975-12.323,3.746
	c-9.729-0.473-14.518-4.906-15.754-8.896c-0.943-3.041,0.011-6.102,2.488-7.986c4.369-3.323,11.931-2.124,20.226,3.209
	c1.581,1.016,3.126,1.945,4.636,2.787c4.378-4.209,7.592-10.565,8.627-16.776c0.779-4.666,1.377-15.867-9.873-19.129
	c-18.518-5.368-28.387,18.807-28.484,19.053c-0.617,1.543-2.368,2.297-3.912,1.682c-1.545-0.617-2.298-2.367-1.683-3.914
	c4.074-10.221,16.789-28.101,35.755-22.604c10.864,3.148,16.281,13.074,14.139,25.904c-1.112,6.668-4.33,13.501-8.933,18.585
	c12.473,5.398,22.313,4.004,30.345-4.211c-2.63-3.859-4.508-8.577-5.244-14.101c-1.439-10.789,1.771-20.92,7.989-25.211
	c3.575-2.468,7.808-2.704,11.609-0.648c3.135,1.693,5.165,4.514,5.872,8.154c1.974,10.18-6.366,24.193-12.414,31.952
	c4.986,4.943,11.755,7.014,17.913,6.236c7.832-0.973,12.772-11.398,12.821-11.504c0.688-1.517,2.473-2.187,3.987-1.497
	c1.516,0.688,2.184,2.474,1.496,3.987c-0.252,0.555-6.293,13.59-17.561,14.992c-7.825,0.975-16.3-1.723-22.568-7.744
	C85.763,64.655,78.925,67.579,71.194,67.581L71.194,67.581z M33.096,53.778c-1.248,0-2.091,0.281-2.537,0.621
	c-0.308,0.232-0.63,0.605-0.382,1.408c0.632,2.035,4.124,4.363,10.296,4.664c2.006,0.1,3.95-0.307,5.799-1.105
	c-0.79-0.475-1.586-0.971-2.39-1.488C38.939,54.702,35.355,53.778,33.096,53.778L33.096,53.778z M96.793,18.852
	c-0.968,0-1.921,0.326-2.872,0.984c-3.545,2.445-6.758,9.578-5.44,19.457c0.52,3.896,1.683,7.258,3.298,10.085
	c6.207-8.333,11.539-19.413,10.289-25.847c-0.365-1.889-1.263-3.16-2.822-4.004C98.412,19.076,97.597,18.852,96.793,18.852
	L96.793,18.852z"/>
<path style="fill:#FFFFFF;" d="M146.637,66.575c-1.729,0-3.457-0.219-5.133-0.648c-12.43-3.186-19.589-17.308-15.958-31.481
	c3.105-12.117,12.972-20.578,23.998-20.578c1.729,0,3.455,0.219,5.133,0.647c12.432,3.185,19.588,17.308,15.957,31.481
	C167.529,58.112,157.662,66.575,146.637,66.575L146.637,66.575z M149.543,19.889c-8.141,0-15.779,6.752-18.162,16.051
	c-2.809,10.957,2.404,21.792,11.619,24.153c1.188,0.305,2.412,0.459,3.637,0.459c8.143,0,15.781-6.75,18.162-16.05
	c2.809-10.957-2.404-21.793-11.619-24.152C151.992,20.045,150.768,19.889,149.543,19.889L149.543,19.889z"/>
<path style="fill:#FFFFFF;" d="M140.121,117.157c-3.23,0-5.65-1.152-7.121-2.129c-4.541-3.02-7.051-8.945-6.395-15.098
	c0.818-7.672,6.012-13.932,14.252-17.168c6.895-2.711,13.814-6.029,20.18-9.514c2.559-12.928,3.982-26.063,4.49-33.583
	c0.113-1.658,1.547-2.906,3.207-2.801c1.66,0.111,2.914,1.547,2.803,3.207c-0.193,2.838-1.121,15.216-3.572,29.196
	c10.283-6.211,18.203-12.412,20.648-16.203c0.902-1.396,2.766-1.799,4.164-0.898c1.396,0.902,1.799,2.766,0.896,4.162
	c-3.545,5.496-14.348,13.525-27.229,20.807c-3.461,16.285-9.082,32.746-18.016,37.666
	C145.266,116.544,142.479,117.157,140.121,117.157L140.121,117.157z M159.361,80.952c-5.361,2.754-10.904,5.293-16.301,7.414
	c-6.08,2.389-9.895,6.838-10.467,12.203c-0.42,3.945,1.049,7.652,3.742,9.443c2.461,1.637,5.639,1.469,9.189-0.486
	C151.633,106.163,156.158,94.327,159.361,80.952L159.361,80.952z"/>
<path style="fill:#FFFFFF;" d="M207.842,66.575c-1.729,0-3.455-0.219-5.133-0.648c-12.43-3.186-19.59-17.308-15.957-31.481
	c3.104-12.117,12.971-20.578,23.996-20.578c1.729,0,3.455,0.219,5.133,0.647c12.43,3.185,19.59,17.308,15.957,31.481
	C228.736,58.112,218.867,66.575,207.842,66.575L207.842,66.575z M210.748,19.889c-8.141,0-15.779,6.752-18.162,16.051
	c-2.807,10.957,2.404,21.792,11.619,24.153c1.188,0.305,2.412,0.459,3.637,0.459c8.141,0,15.781-6.75,18.162-16.05
	c2.807-10.957-2.404-21.793-11.617-24.152C213.197,20.045,211.973,19.889,210.748,19.889L210.748,19.889z"/>
<path style="fill:#FFFFFF;" d="M201.326,117.157c-3.23,0-5.65-1.152-7.121-2.129c-4.539-3.02-7.051-8.945-6.395-15.098
	c0.818-7.672,6.014-13.932,14.252-17.168c6.896-2.711,13.814-6.029,20.182-9.514c2.555-12.928,3.98-26.063,4.488-33.583
	c0.113-1.658,1.543-2.906,3.209-2.801c1.658,0.111,2.912,1.547,2.801,3.207c-0.191,2.838-1.123,15.216-3.572,29.196
	c10.285-6.211,18.203-12.412,20.648-16.203c0.902-1.396,2.766-1.799,4.164-0.898c1.396,0.902,1.799,2.766,0.896,4.162
	c-3.545,5.496-14.348,13.525-27.229,20.807c-3.461,16.285-9.08,32.746-18.014,37.666
	C206.471,116.544,203.684,117.157,201.326,117.157L201.326,117.157z M220.566,80.952c-5.359,2.754-10.904,5.293-16.301,7.414
	c-6.08,2.389-9.895,6.838-10.467,12.203c-0.42,3.945,1.047,7.652,3.742,9.443c2.461,1.637,5.639,1.469,9.189-0.486
	C212.838,106.163,217.363,94.327,220.566,80.952L220.566,80.952z"/>
</svg>
