<?xml version="1.0" encoding="utf-8"?>
<!-- Generator: Adobe Illustrator 16.0.0, SVG Export Plug-In . SVG Version: 6.00 Build 0)  -->
<!DOCTYPE svg PUBLIC "-//W3C//DTD SVG 1.1//EN" "http://www.w3.org/Graphics/SVG/1.1/DTD/svg11.dtd">
<svg version="1.1" id="Layer_1" xmlns="http://www.w3.org/2000/svg" xmlns:xlink="http://www.w3.org/1999/xlink" x="0px" y="0px"
	 width="200px" height="200px" viewBox="0 0 200 200" enable-background="new 0 0 200 200" xml:space="preserve">
<g>
	<g>
		<defs>
			<polygon id="SVGID_1_" points="116.655,12.638 98.849,72.407 121.746,86.826 171.399,47.549 192.545,101.91 189.667,139.307 
				165.204,171.52 131.389,192.387 88.938,197.424 26.296,172.236 6.915,139.307 -1,95.975 19.146,49.928 45.048,22.584 
				77.425,12.638 106.117,7.292 			"/>
		</defs>
		<clipPath id="SVGID_2_">
			<use xlink:href="#SVGID_1_"  overflow="visible"/>
		</clipPath>
		<g clip-path="url(#SVGID_2_)">
			<path fill="#00C2FF" d="M98.843,53.336c-27.401,0-49.609,22.21-49.609,49.619H60.7c0-21.081,17.073-38.145,38.143-38.145
				c21.073,0,38.146,17.064,38.146,38.145h11.468C148.456,75.546,126.241,53.336,98.843,53.336z"/>
			<path fill="#AAE900" d="M98.843,41.863c-33.735,0-61.082,27.349-61.082,61.092h11.472c0-27.409,22.208-49.619,49.609-49.619
				c27.398,0,49.613,22.21,49.613,49.619h11.473C159.929,69.211,132.58,41.863,98.843,41.863z"/>
			<g>
				<path fill="#FFDE00" d="M98.843,30.389c-40.072,0-72.547,32.476-72.547,72.566h11.465c0-33.744,27.347-61.092,61.082-61.092
					c33.737,0,61.086,27.349,61.086,61.092h11.471C171.399,62.865,138.909,30.389,98.843,30.389z"/>
			</g>
			<path fill="#FF8061" d="M98.843,18.926c-46.396,0-84.013,37.628-84.013,84.029h11.466c0-40.09,32.475-72.566,72.547-72.566
				c40.066,0,72.557,32.476,72.557,72.566h11.46C182.859,56.554,145.253,18.926,98.843,18.926z"/>
		</g>
		<g clip-path="url(#SVGID_2_)">
			<path fill="#00C2FF" d="M98.845,152.646c27.404,0,49.611-22.211,49.611-49.621H136.99c0,21.078-17.072,38.148-38.146,38.148
				c-21.072,0-38.144-17.07-38.144-38.148H49.233C49.233,130.436,71.449,152.646,98.845,152.646z"/>
			<path fill="#AAE900" d="M98.845,164.119c33.735,0,61.084-27.352,61.084-61.094h-11.473c0,27.41-22.207,49.621-49.611,49.621
				c-27.396,0-49.611-22.211-49.611-49.621H37.762C37.762,136.768,65.111,164.119,98.845,164.119z"/>
			<g>
				<path fill="#FFDE00" d="M98.845,175.588c40.073,0,72.549-32.475,72.549-72.563h-11.465c0,33.742-27.349,61.094-61.084,61.094
					c-33.734,0-61.083-27.352-61.083-61.094H26.288C26.288,143.113,58.78,175.588,98.845,175.588z"/>
			</g>
			<path fill="#FF8061" d="M98.845,187.051c46.398,0,84.015-37.621,84.015-84.025h-11.466c0,40.088-32.476,72.563-72.549,72.563
				c-40.064,0-72.557-32.475-72.557-72.563H14.83C14.83,149.43,52.434,187.051,98.845,187.051z"/>
		</g>
	</g>
	<g>
		<defs>
			<polygon id="SVGID_3_" points="104.653,65.549 123.929,1 178.673,35.911 126.837,76.824 			"/>
		</defs>
		<clipPath id="SVGID_4_">
			<use xlink:href="#SVGID_3_"  overflow="visible"/>
		</clipPath>
		<g clip-path="url(#SVGID_4_)">
			<path fill="#00C2FF" d="M106.117,41.698c-27.402,0-49.61,22.21-49.61,49.619h11.467c0-21.08,17.071-38.144,38.144-38.144
				s38.145,17.064,38.145,38.144h11.468C155.729,63.908,133.515,41.698,106.117,41.698z"/>
			<path fill="#AAE900" d="M106.117,30.225c-33.735,0-61.083,27.352-61.083,61.092h11.472c0-27.409,22.208-49.619,49.61-49.619
				c27.397,0,49.612,22.21,49.612,49.619h11.473C167.202,57.576,139.853,30.225,106.117,30.225z"/>
			<g>
				<path fill="#FFDE00" d="M106.117,18.751c-40.072,0-72.548,32.477-72.548,72.565h11.465c0-33.74,27.347-61.092,61.083-61.092
					s61.085,27.352,61.085,61.092h11.471C178.673,51.228,146.182,18.751,106.117,18.751z"/>
			</g>
			<path fill="#FF8061" d="M106.117,7.292c-46.397,0-84.014,37.624-84.014,84.025h11.466c0-40.089,32.476-72.565,72.548-72.565
				c40.064,0,72.556,32.477,72.556,72.565h11.46C190.133,44.916,152.527,7.292,106.117,7.292z"/>
		</g>
	</g>
</g>
</svg>
