<?xml version="1.0" encoding="utf-8"?>
<!-- Generator: Adobe Illustrator 16.0.0, SVG Export Plug-In . SVG Version: 6.00 Build 0)  -->
<!DOCTYPE svg PUBLIC "-//W3C//DTD SVG 1.1//EN" "http://www.w3.org/Graphics/SVG/1.1/DTD/svg11.dtd">
<svg version="1.1" id="Layer_1" xmlns="http://www.w3.org/2000/svg" xmlns:xlink="http://www.w3.org/1999/xlink" x="0px" y="0px"
	 width="200px" height="200px" viewBox="0 0 200 200" enable-background="new 0 0 200 200" xml:space="preserve">
<path fill="#FF694F" d="M119.002,146.252c-9.107-0.138-18.255-3.04-26.096-8.923c-19.748-14.81-23.749-42.818-8.938-62.561
	c14.785-19.72,42.729-23.736,62.474-9.004l32.279-42.976C135.232-9.78,73.572-0.954,40.973,42.519
	C8.354,86.011,17.17,147.706,60.664,180.322c17.522,13.139,38,19.546,58.338"/>
<path fill="#FFDA00" d="M119.002,146.252c-9.107-0.138-18.255-3.04-26.096-8.923c-19.748-14.81-23.749-42.818-8.938-62.561
	c14.785-19.72,42.729-23.736,62.474-9.004l24.209-32.23C133.096,5.42,79.864,13.049,51.717,50.582
	c-28.163,37.551-20.554,90.825,17.008,118.993c15.101,11.322,32.746,16.851,50.277,16.983V146.252z"/>
<path fill="#9DEB00" d="M119.002,146.252c-9.107-0.138-18.251-3.04-26.096-8.923c-19.748-14.81-23.749-42.818-8.938-62.561
	c14.785-19.72,42.729-23.736,62.474-9.004l16.141-21.487c-31.619-23.65-76.423-17.229-100.118,14.365
	c-23.708,31.614-17.3,76.469,14.321,100.186c12.682,9.51,27.494,14.157,42.217,14.291V146.252z"/>
<path fill="#00B5FF" d="M119.002,146.252c-9.107-0.138-18.255-3.04-26.096-8.923c-19.748-14.81-23.749-42.818-8.938-62.561
	c14.785-19.72,42.729-23.736,62.474-9.004l8.07-10.744c-25.68-19.191-62.054-13.969-81.292,11.685
	c-19.259,25.681-14.054,62.108,11.628,81.369c10.261,7.697,22.241,11.477,34.153,11.612V146.252z"/>
</svg>
