<?xml version="1.0" encoding="utf-8"?>
<!-- Generator: Adobe Illustrator 16.0.0, SVG Export Plug-In . SVG Version: 6.00 Build 0)  -->
<!DOCTYPE svg PUBLIC "-//W3C//DTD SVG 1.1//EN" "http://www.w3.org/Graphics/SVG/1.1/DTD/svg11.dtd">
<svg version="1.1" id="Layer_1" xmlns="http://www.w3.org/2000/svg" xmlns:xlink="http://www.w3.org/1999/xlink" x="0px" y="0px"
	 width="60px" height="60px" viewBox="0 0 60 60" enable-background="new 0 0 60 60" xml:space="preserve">
<path fill="#011890" d="M45.309,41.523c-1.191,0-2.281,0.396-3.174,1.047L20.067,30.364c0.007-0.122,0.037-0.239,0.037-0.364
	s-0.029-0.242-0.037-0.364L42.131,17.43c0.896,0.651,1.986,1.048,3.178,1.048c2.988,0,5.41-2.422,5.41-5.411
	c0-2.988-2.422-5.412-5.41-5.412s-5.412,2.424-5.412,5.412c0,0.125,0.029,0.242,0.037,0.364L17.868,25.637
	c-0.895-0.652-1.986-1.048-3.177-1.048c-2.986,0-5.41,2.422-5.41,5.411c0,2.988,2.424,5.411,5.41,5.411
	c1.191,0,2.282-0.396,3.177-1.048l22.065,12.206c-0.008,0.122-0.037,0.239-0.037,0.365c0,2.987,2.424,5.411,5.412,5.411
	s5.41-2.424,5.41-5.411C50.719,43.946,48.297,41.523,45.309,41.523z"/>
</svg>
