<?xml version="1.0" encoding="utf-8"?>
<!-- Generator: Adobe Illustrator 16.0.0, SVG Export Plug-In . SVG Version: 6.00 Build 0)  -->
<!DOCTYPE svg PUBLIC "-//W3C//DTD SVG 1.1//EN" "http://www.w3.org/Graphics/SVG/1.1/DTD/svg11.dtd">
<svg version="1.1" id="Layer_1" xmlns="http://www.w3.org/2000/svg" xmlns:xlink="http://www.w3.org/1999/xlink" x="0px" y="0px"
	 width="585px" height="750px" viewBox="0 0 585 750" enable-background="new 0 0 585 750" xml:space="preserve">
<g>
	<path fill="#80ADB3" d="M582.811,12.353l-2.295-4.664L578.863,8.5c-1.479-0.814-3.176-1.282-4.976-1.282H15.916
		c-5.694,0-10.354,4.653-10.354,10.343v719.89l-1.419,0.699l2.363,4.802l0.006-0.002c1.642,3.559,5.242,6.05,9.404,6.05h557.972
		c5.694,0,10.354-4.653,10.354-10.343V17.562C584.241,15.665,583.714,13.886,582.811,12.353z"/>
	<g>
		<g>
			<path fill="#FFFFFF" d="M581.652,733.484c0,5.688-4.658,10.343-10.353,10.343H13.328c-5.694,0-10.353-4.654-10.353-10.343V12.389
				c0-5.689,4.659-10.343,10.353-10.343H571.3c5.694,0,10.353,4.654,10.353,10.343V733.484z"/>
		</g>
		<path fill="#ABD1D6" d="M571.3,2.046H220.884l314.702,741.781H571.3c5.694,0,10.353-4.654,10.353-10.343V12.389
			C581.652,6.7,576.994,2.046,571.3,2.046z"/>
	</g>
</g>
</svg>
