<?xml version="1.0" encoding="utf-8"?>
<!-- Generator: Adobe Illustrator 16.0.0, SVG Export Plug-In . SVG Version: 6.00 Build 0)  -->
<!DOCTYPE svg PUBLIC "-//W3C//DTD SVG 1.1//EN" "http://www.w3.org/Graphics/SVG/1.1/DTD/svg11.dtd">
<svg version="1.1" id="Layer_1" xmlns="http://www.w3.org/2000/svg" xmlns:xlink="http://www.w3.org/1999/xlink" x="0px" y="0px"
	 width="400px" height="400px" viewBox="0 0 400 400" enable-background="new 0 0 400 400" xml:space="preserve">
<g>
	<defs>
		<circle id="SVGID_1_" cx="200" cy="200" r="177.071"/>
	</defs>
	<clipPath id="SVGID_2_">
		<use xlink:href="#SVGID_1_"  overflow="visible"/>
	</clipPath>
	<g clip-path="url(#SVGID_2_)">
		<g>
			<defs>
				<path id="SVGID_3_" d="M99.94,165.126c0,31.422,25.474,56.897,56.897,56.897c1.398,0,2.781-0.069,4.153-0.167l2.871,25.017
					c-11.796,10.287-27.224,16.517-44.108,16.517c-37.089,0-67.151-30.063-67.151-67.154c0-34.636,26.223-63.144,59.906-66.757
					C104.652,139.232,99.94,151.624,99.94,165.126z"/>
			</defs>
			<clipPath id="SVGID_4_">
				<use xlink:href="#SVGID_3_"  overflow="visible"/>
			</clipPath>
			<path clip-path="url(#SVGID_4_)" fill="#FF694F" d="M99.94,165.126c0,31.422,25.474,56.897,56.897,56.897
				c1.398,0,2.781-0.069,4.153-0.167l2.871,25.017c-11.796,10.287-27.224,16.517-44.108,16.517
				c-37.089,0-67.151-30.063-67.151-67.154c0-34.636,26.223-63.144,59.906-66.757C104.652,139.232,99.94,151.624,99.94,165.126z"/>
			<path clip-path="url(#SVGID_4_)" fill="#FFDA00" d="M198.758,186.252c9.612-33.565-33.285-61.767-70.8-60.063
				c-37.516,1.708-66.636,31.367-65.05,66.247c1.589,34.876,30.979,61.763,68.497,60.058
				C168.921,250.789,189.388,218.982,198.758,186.252z"/>
			<path clip-path="url(#SVGID_4_)" fill="#9DEB00" d="M197.902,183.303c5.521-31.968-27.527-58.738-61.488-58.738
				c-33.959,0-61.488,26.297-61.488,58.738c0,32.44,27.582,60.667,61.433,57.965C170.116,238.577,192.073,217.063,197.902,183.303z"
				/>
			<path clip-path="url(#SVGID_4_)" fill="#00B5FF" d="M202.515,174.173c0-30.58-25.545-55.374-57.056-55.374
				c-31.514,0-57.06,24.794-57.06,55.374c0,30.585,22.409,57.107,57.06,55.378C176.932,227.984,202.515,204.759,202.515,174.173z"/>
		</g>
		<path fill="#ADD3D8" d="M180.662,176.501c-38.432,0-69.585,38.188-69.585,85.296v247.827h37.331V313.259
			c0-21.832,14.435-39.532,32.254-39.532c17.808,0,32.249,17.7,32.249,39.532v196.366h37.326V261.798
			C250.237,214.689,219.086,176.501,180.662,176.501z"/>
		<path fill="#44777C" d="M259.39,353.626c-27.2,18.448-46.682,14.925-46.682,14.925s0-41.907,0-59.207
			c0-1.938-0.695-5.382-1.635-8.354c-0.698-2.199,1.635-8.837,1.635-8.837l47.354-10.475
			C260.062,281.679,280.466,339.337,259.39,353.626z"/>
		<path fill="#44777C" d="M173.609,368.551c-23.077,0-62.532-33.285-62.532-74.346c0-41.064,18.707-74.346,41.784-74.346"/>
		<path fill="#FFFFFF" d="M208.864,176.501c-38.427,0-69.579,38.188-69.579,85.296v247.827h37.329V313.259
			c0-21.832,14.441-39.532,32.25-39.532c17.816,0,32.251,17.7,32.251,39.532v196.366h37.332V261.798
			C278.447,214.689,247.292,176.501,208.864,176.501z"/>
		<path fill="#FFFFFF" d="M202.819,180.947c-6.964-2.873-14.41-4.446-22.157-4.446c-38.432,0-69.585,38.188-69.585,85.296v34.426
			c16.036,2.288,28.489,18.974,28.489,39.244v174.157h37.33V261.798L202.819,180.947z"/>
		<path fill="#81AFB5" d="M208.864,273.727c17.816,0,32.251,17.7,32.251,39.532v11.698c14.149-5.466,26.845-13.847,37.332-24.43
			v-38.729c0-47.108-31.155-85.296-69.583-85.296"/>
		<path fill="#FFFFFF" d="M265.409,102.796l5.639-34.356c-9.575,8.589-20.743,20.396-28.249,34.356h-68.307
			c-7.502-13.96-18.673-25.768-28.247-34.356l19.544,119.039c0.02-0.037,0.046-0.077,0.066-0.116l11.238,68.512
			c-3.984,3.381-6.523,8.421-6.523,14.057c0,7.776,4.819,14.416,11.63,17.129c4.604,10.08,14.75,17.096,26.55,17.096
			c11.807,0,21.954-7.016,26.561-17.096c6.809-2.713,11.622-9.353,11.622-17.129c0-5.636-2.534-10.676-6.523-14.057l25.112-153.079
			H265.409z"/>
		<path fill="#ADD3D8" d="M191.421,220.355c0,0-19.867-66.623,48.487-92.378c-16.938-10.484-68.14,6.807-69.338,42.827
			C169.37,206.825,180.627,214.863,191.421,220.355z"/>
		<g>
			<defs>
				<path id="SVGID_5_" d="M178.856,184.706c0-31.423,25.476-56.897,56.899-56.897c1.399,0,2.781,0.07,4.152,0.168l2.872-25.018
					c-11.8-10.286-27.228-16.514-44.109-16.514c-37.088,0-67.153,30.063-67.153,67.151c0,34.638,26.226,63.143,59.903,66.759
					C183.571,210.6,178.856,198.204,178.856,184.706z"/>
			</defs>
			<clipPath id="SVGID_6_">
				<use xlink:href="#SVGID_5_"  overflow="visible"/>
			</clipPath>
			<path clip-path="url(#SVGID_6_)" fill="#FF694F" d="M178.856,184.706c0-31.423,25.476-56.897,56.899-56.897
				c1.399,0,2.781,0.07,4.152,0.168l2.872-25.018c-11.8-10.286-27.228-16.514-44.109-16.514c-37.088,0-67.153,30.063-67.153,67.151
				c0,34.638,26.226,63.143,59.903,66.759C183.571,210.6,178.856,198.204,178.856,184.706z"/>
			<path clip-path="url(#SVGID_6_)" fill="#FFDA00" d="M277.677,163.578c9.612,33.569-33.284,61.77-70.799,60.063
				c-37.517-1.706-66.638-31.369-65.052-66.244c1.588-34.879,30.979-61.77,68.496-60.061
				C247.837,99.044,268.307,130.848,277.677,163.578z"/>
			<path clip-path="url(#SVGID_6_)" fill="#9DEB00" d="M276.82,166.531c5.521,31.966-27.527,58.737-61.487,58.737
				c-33.958,0-61.487-26.298-61.487-58.737c0-32.445,27.581-60.669,61.433-57.968C249.031,111.253,270.99,132.768,276.82,166.531z"
				/>
			<path clip-path="url(#SVGID_6_)" fill="#00B5FF" d="M281.432,175.655c0,30.586-25.548,55.379-57.055,55.379
				c-31.514,0-57.059-24.793-57.059-55.379c0-30.583,22.411-57.104,57.059-55.375C255.848,121.849,281.432,145.072,281.432,175.655z
				"/>
		</g>
		<path fill="#E9EAEB" d="M238.412,258.498c3.607,1.656,6.217,6.193,6.217,11.588c0,5.403-2.609,9.936-6.217,11.593
			c-3.611-1.657-6.223-6.189-6.223-11.593C232.189,264.691,234.801,260.154,238.412,258.498z"/>
		<path fill="#81AFB5" d="M191.231,270.086c0,6.798-4.108,12.305-9.181,12.305c-5.066,0-9.174-5.507-9.174-12.305
			c0-6.789,4.108-12.301,9.174-12.301C187.123,257.785,191.231,263.297,191.231,270.086z"/>
		<path fill="#44777C" d="M189.078,270.086c0-6.295-3.546-11.43-8.1-12.152c0.355-0.058,0.706-0.148,1.073-0.148
			c5.072,0,9.181,5.512,9.181,12.301c0,6.798-4.108,12.305-9.181,12.305c-0.367,0-0.718-0.089-1.073-0.146
			C185.532,281.522,189.078,276.392,189.078,270.086z"/>
		<path fill="#FFFFFF" d="M185.315,272.893c0,5.24-2.439,9.498-5.457,9.498c-3.015,0-5.458-4.258-5.458-9.498
			c0-5.249,2.444-9.503,5.458-9.503C182.876,263.39,185.315,267.644,185.315,272.893z"/>
		<path fill="#ADD3D8" d="M220.263,281.78c-0.258,12.425-5.813,18.969-9.638,22.304c10.996-0.697,20.324-7.482,24.686-17.023
			c6.809-2.713,11.622-9.353,11.622-17.129c0-5.636-2.534-10.676-6.523-14.057l17.775-108.356c-1.525-0.916-2.48-4.789-4.149-4.789
			c-18.653,0-33.772,29.797-33.772,69.604V281.78z"/>
		<path fill="#81AFB5" d="M226.272,270.086c0,6.798,4.112,12.305,9.182,12.305c5.065,0,9.175-5.507,9.175-12.305
			c0-6.789-4.109-12.301-9.175-12.301C230.385,257.785,226.272,263.297,226.272,270.086z"/>
		<path fill="#44777C" d="M228.426,270.086c0-6.295,3.548-11.43,8.104-12.152c-0.359-0.058-0.705-0.148-1.075-0.148
			c-5.069,0-9.182,5.512-9.182,12.301c0,6.798,4.112,12.305,9.182,12.305c0.37,0,0.716-0.089,1.075-0.146
			C231.974,281.522,228.426,276.392,228.426,270.086z"/>
		<path fill="#E6F2F2" d="M243.063,272.893c0,5.24-2.443,9.498-5.458,9.498c-3.012,0-5.459-4.258-5.459-9.498
			c0-5.249,2.447-9.503,5.459-9.503C240.62,263.39,243.063,267.644,243.063,272.893z"/>
		<g>
			<path fill="#CCB7CF" d="M260.036,148.626c0,2.13-1.729,3.856-3.856,3.856c-2.135,0-3.86-1.727-3.86-3.856s1.726-3.861,3.86-3.861
				C258.308,144.765,260.036,146.496,260.036,148.626z"/>
		</g>
		<rect x="241.115" y="481.191" fill="#81AFB5" width="37.332" height="28.434"/>
		<rect x="212.735" y="481.191" fill="#44777C" width="28.38" height="28.434"/>
		<rect x="139.458" y="481.191" fill="#81AFB5" width="37.329" height="28.434"/>
		<rect x="111.077" y="481.191" fill="#44777C" width="28.381" height="28.434"/>
		<g>
			<g>
				<circle fill="#44777C" cx="252.292" cy="152.074" r="9.511"/>
			</g>
			<g>
				<circle fill="#C5D8D9" cx="255.092" cy="150.395" r="3.858"/>
			</g>
			<g>
				<circle fill="#C5D8D9" cx="252.29" cy="156.732" r="1.746"/>
			</g>
			<g>
				<path fill="#C5D8D9" d="M250.544,153.331c0,0.511-0.408,0.92-0.919,0.92c-0.51,0-0.92-0.409-0.92-0.92
					c0-0.505,0.41-0.919,0.92-0.919C250.136,152.412,250.544,152.825,250.544,153.331z"/>
			</g>
		</g>
		<path fill="#ADD3D8" d="M219.251,154.25c0,7.764-6.291,14.056-14.057,14.056c-7.762,0-14.053-6.292-14.053-14.056
			c0-7.763,6.291-14.053,14.053-14.053C212.96,140.197,219.251,146.487,219.251,154.25z"/>
		<path fill="#81AFB5" d="M194.125,153.208l11.069-112.965l11.07,112.965c0,6.111-4.955,11.069-11.07,11.069
			S194.125,159.32,194.125,153.208z"/>
		<path fill="#44777C" d="M205.194,40.243l11.07,112.965c0,6.111-4.955,11.069-11.07,11.069"/>
	</g>
</g>
</svg>
