<?xml version="1.0" encoding="utf-8"?>
<!-- Generator: Adobe Illustrator 16.0.0, SVG Export Plug-In . SVG Version: 6.00 Build 0)  -->
<!DOCTYPE svg PUBLIC "-//W3C//DTD SVG 1.1//EN" "http://www.w3.org/Graphics/SVG/1.1/DTD/svg11.dtd">
<svg version="1.1" id="Layer_1" xmlns="http://www.w3.org/2000/svg" xmlns:xlink="http://www.w3.org/1999/xlink" x="0px" y="0px"
	 width="200px" height="200px" viewBox="0 0 200 200" enable-background="new 0 0 200 200" xml:space="preserve">
<g>
	<g>
		<polygon fill="#FF9D00" points="-247.6,187.119 -228.599,165.115 -228.599,41.112 -247.6,63.116 		"/>
		<rect x="-229.596" y="41.112" fill="#FF9D00" width="168.503" height="124.003"/>
		<g>
			<g>
				<path fill="#ADD3D8" d="M-70.7,163.488c0,1.514-1.236,2.756-2.754,2.756h-148.55c-1.52,0-2.762-1.242-2.762-2.756V19.895
					c0-1.516,1.242-2.757,2.762-2.757h148.55c1.518,0,2.754,1.241,2.754,2.757V163.488z"/>
			</g>
			<g>
				<path fill="#D7E8E8" d="M-71.385,162.66c0,1.516-1.242,2.758-2.756,2.758h-148.554c-1.514,0-2.756-1.242-2.756-2.758V19.069
					c0-1.517,1.242-2.756,2.756-2.756h148.554c1.514,0,2.756,1.239,2.756,2.756V162.66z"/>
			</g>
		</g>
		<g>
			<g>
				<path fill="#ADD3D8" d="M-76.698,168.563c0,1.514-1.238,2.754-2.758,2.754h-148.55c-1.514,0-2.754-1.24-2.754-2.754V24.966
					c0-1.513,1.24-2.756,2.754-2.756h148.55c1.52,0,2.758,1.243,2.758,2.756V168.563z"/>
			</g>
			<g>
				<path fill="#D7E8E8" d="M-77.387,167.734c0,1.516-1.24,2.756-2.754,2.756h-148.556c-1.516,0-2.755-1.24-2.755-2.756V24.141
					c0-1.518,1.239-2.756,2.755-2.756h148.556c1.514,0,2.754,1.238,2.754,2.756V167.734z"/>
			</g>
		</g>
		<g>
			<path fill="#ADD3D8" d="M-82.696,173.986c0,1.518-1.242,2.76-2.758,2.76h-148.552c-1.515,0-2.756-1.242-2.756-2.76V30.396
				c0-1.517,1.241-2.756,2.756-2.756h148.552c1.516,0,2.758,1.239,2.758,2.756V173.986z"/>
		</g>
		<g>
			<path fill="#FFFFFF" d="M-83.387,173.16c0,1.518-1.236,2.756-2.756,2.756h-148.552c-1.517,0-2.758-1.238-2.758-2.756V29.571
				c0-1.518,1.241-2.758,2.758-2.758h148.552c1.52,0,2.756,1.24,2.756,2.758V173.16z"/>
		</g>
		<path fill="#F2FAFA" d="M-86.143,26.813h-93.296l83.791,149.103h9.506c1.52,0,2.756-1.238,2.756-2.756V29.571
			C-83.387,28.053-84.624,26.813-86.143,26.813z"/>
		<polygon fill="#FFBB00" points="-79.592,187.119 -60.594,165.115 -60.594,41.112 -79.592,63.116 		"/>
		<path fill="#FFDA00" d="M-144.348,63.116c0,10.491-8.506,18.998-19,18.998c-10.488,0-18.994-8.507-18.994-18.998H-247.6v124.003
			H-79.09V63.116H-144.348z"/>
	</g>
	<g>
		<polygon fill="#83B600" points="6.402,187.119 25.402,165.115 25.402,41.112 6.402,63.116 		"/>
		<rect x="24.406" y="41.112" fill="#83B600" width="168.502" height="124.003"/>
		<g>
			<g>
				<path fill="#ADD3D8" d="M183.303,163.488c0,1.514-1.236,2.756-2.756,2.756H31.996c-1.52,0-2.76-1.242-2.76-2.756V19.895
					c0-1.516,1.24-2.757,2.76-2.757h148.551c1.52,0,2.756,1.241,2.756,2.757V163.488z"/>
			</g>
			<g>
				<path fill="#D7E8E8" d="M182.615,162.66c0,1.516-1.242,2.758-2.754,2.758H31.304c-1.514,0-2.756-1.242-2.756-2.758V19.069
					c0-1.517,1.242-2.756,2.756-2.756h148.557c1.512,0,2.754,1.239,2.754,2.756V162.66z"/>
			</g>
		</g>
		<g>
			<g>
				<path fill="#ADD3D8" d="M177.303,168.563c0,1.514-1.238,2.754-2.758,2.754H25.996c-1.514,0-2.756-1.24-2.756-2.754V24.966
					c0-1.513,1.242-2.756,2.756-2.756h148.549c1.52,0,2.758,1.243,2.758,2.756V168.563z"/>
			</g>
			<g>
				<path fill="#D7E8E8" d="M176.615,167.734c0,1.516-1.242,2.756-2.756,2.756H25.302c-1.516,0-2.754-1.24-2.754-2.756V24.141
					c0-1.518,1.238-2.756,2.754-2.756h148.557c1.514,0,2.756,1.238,2.756,2.756V167.734z"/>
			</g>
		</g>
		<g>
			<path fill="#ADD3D8" d="M171.305,173.986c0,1.518-1.242,2.76-2.758,2.76H19.994c-1.514,0-2.756-1.242-2.756-2.76V30.396
				c0-1.517,1.242-2.756,2.756-2.756h148.553c1.516,0,2.758,1.239,2.758,2.756V173.986z"/>
		</g>
		<g>
			<path fill="#FFFFFF" d="M170.613,173.16c0,1.518-1.236,2.756-2.756,2.756H19.304c-1.516,0-2.758-1.238-2.758-2.756V29.571
				c0-1.518,1.242-2.758,2.758-2.758h148.553c1.52,0,2.756,1.24,2.756,2.758V173.16z"/>
		</g>
		<path fill="#F2FAFA" d="M167.857,26.813H74.56l83.792,149.103h9.506c1.52,0,2.756-1.238,2.756-2.756V29.571
			C170.613,28.053,169.377,26.813,167.857,26.813z"/>
		<polygon fill="#9DCD00" points="174.408,187.119 193.406,165.115 193.406,41.112 174.408,63.116 		"/>
		<path fill="#9DEB00" d="M109.654,63.116c0,10.491-8.508,18.998-19.002,18.998c-10.488,0-18.994-8.507-18.994-18.998H6.402v124.003
			H174.91V63.116H109.654z"/>
	</g>
	<g>
		<polygon fill="#009DF0" points="6.4,-66.329 25.402,-88.328 25.402,-212.333 6.4,-190.332 		"/>
		<rect x="24.4" y="-212.333" fill="#006FE8" width="168.508" height="124.006"/>
		<g>
			<g>
				<path fill="#ADD3D8" d="M183.301-89.958c0,1.513-1.24,2.757-2.754,2.757H31.996c-1.52,0-2.76-1.244-2.76-2.757V-233.55
					c0-1.517,1.24-2.759,2.76-2.759h148.551c1.514,0,2.754,1.242,2.754,2.759V-89.958z"/>
			</g>
			<g>
				<path fill="#D7E8E8" d="M182.609-90.786c0,1.516-1.236,2.759-2.754,2.759H31.304c-1.516,0-2.762-1.243-2.762-2.759v-143.591
					c0-1.517,1.246-2.757,2.762-2.757h148.551c1.518,0,2.754,1.24,2.754,2.757V-90.786z"/>
			</g>
		</g>
		<g>
			<g>
				<path fill="#ADD3D8" d="M177.301-84.883c0,1.514-1.242,2.755-2.756,2.755H25.996c-1.52,0-2.756-1.241-2.756-2.755v-143.595
					c0-1.515,1.236-2.758,2.756-2.758h148.549c1.514,0,2.756,1.243,2.756,2.758V-84.883z"/>
			</g>
			<g>
				<path fill="#D7E8E8" d="M176.611-85.711c0,1.514-1.238,2.757-2.756,2.757H25.302c-1.516,0-2.754-1.243-2.754-2.757v-143.593
					c0-1.518,1.238-2.757,2.754-2.757h148.553c1.518,0,2.756,1.239,2.756,2.757V-85.711z"/>
			</g>
		</g>
		<g>
			<path fill="#ADD3D8" d="M171.303-79.458c0,1.516-1.24,2.757-2.756,2.757H19.994c-1.52,0-2.758-1.241-2.758-2.757v-143.591
				c0-1.519,1.238-2.757,2.758-2.757h148.553c1.516,0,2.756,1.238,2.756,2.757V-79.458z"/>
		</g>
		<g>
			<path fill="#FFFFFF" d="M170.613-80.286c0,1.518-1.242,2.757-2.756,2.757H19.302c-1.514,0-2.756-1.239-2.756-2.757v-143.59
				c0-1.518,1.242-2.759,2.756-2.759h148.555c1.514,0,2.756,1.241,2.756,2.759V-80.286z"/>
		</g>
		<path fill="#F2FAFA" d="M167.857-226.634H74.56l83.79,149.105h9.508c1.514,0,2.756-1.239,2.756-2.757v-143.59
			C170.613-225.393,169.371-226.634,167.857-226.634z"/>
		<polygon fill="#009DF0" points="174.406,-66.329 193.406,-88.328 193.406,-212.333 174.406,-190.332 		"/>
		<path fill="#00B5FF" d="M109.652-190.332c0,10.491-8.506,19-19,19c-10.494,0-19-8.509-19-19H6.4v124.003h168.504v-124.003H109.652
			z"/>
	</g>
	<g>
		<polygon fill="#C5384F" points="-247.598,-66.328 -228.598,-88.33 -228.598,-212.334 -247.598,-190.331 		"/>
		<rect x="-229.6" y="-212.334" fill="#C5384F" width="168.505" height="124.005"/>
		<g>
			<g>
				<path fill="#ADD3D8" d="M-70.698-89.958c0,1.514-1.242,2.758-2.756,2.758h-148.554c-1.515,0-2.756-1.244-2.756-2.758v-143.594
					c0-1.516,1.241-2.757,2.756-2.757h148.554c1.514,0,2.756,1.241,2.756,2.757V-89.958z"/>
			</g>
			<g>
				<path fill="#D7E8E8" d="M-71.387-90.786c0,1.515-1.24,2.758-2.754,2.758h-148.553c-1.514,0-2.761-1.243-2.761-2.758v-143.593
					c0-1.516,1.247-2.756,2.761-2.756h148.553c1.514,0,2.754,1.24,2.754,2.756V-90.786z"/>
			</g>
		</g>
		<g>
			<g>
				<path fill="#ADD3D8" d="M-76.698-84.884c0,1.514-1.236,2.754-2.756,2.754h-148.553c-1.517,0-2.758-1.24-2.758-2.754V-228.48
					c0-1.514,1.241-2.757,2.758-2.757h148.553c1.52,0,2.756,1.243,2.756,2.757V-84.884z"/>
			</g>
			<g>
				<path fill="#D7E8E8" d="M-77.385-85.712c0,1.515-1.242,2.758-2.76,2.758h-148.55c-1.52,0-2.756-1.243-2.756-2.758v-143.594
					c0-1.517,1.236-2.756,2.756-2.756h148.55c1.518,0,2.76,1.239,2.76,2.756V-85.712z"/>
			</g>
		</g>
		<g>
			<path fill="#ADD3D8" d="M-82.7-79.458c0,1.516-1.236,2.757-2.756,2.757h-148.552c-1.517,0-2.759-1.241-2.759-2.757V-223.05
				c0-1.518,1.242-2.757,2.759-2.757h148.552c1.52,0,2.756,1.239,2.756,2.757V-79.458z"/>
		</g>
		<g>
			<path fill="#FFFFFF" d="M-83.385-80.287c0,1.518-1.24,2.757-2.756,2.757h-148.556c-1.514,0-2.755-1.239-2.755-2.757v-143.59
				c0-1.517,1.241-2.758,2.755-2.758h148.556c1.516,0,2.756,1.241,2.756,2.758V-80.287z"/>
		</g>
		<path fill="#F2FAFA" d="M-86.141-226.634h-93.297L-95.651-77.53h9.51c1.516,0,2.756-1.239,2.756-2.757v-143.59
			C-83.385-225.393-84.625-226.634-86.141-226.634z"/>
		<polygon fill="#F2584F" points="-79.592,-66.328 -60.596,-88.33 -60.596,-212.334 -79.592,-190.331 		"/>
		<path fill="#FF694F" d="M-144.346-190.331c0,10.49-8.506,18.997-19,18.997c-10.494,0-19-8.507-19-18.997h-65.251v124.003h168.503
			v-124.003H-144.346z"/>
	</g>
</g>
</svg>
