<?xml version="1.0" encoding="utf-8"?>
<!-- Generator: Adobe Illustrator 16.0.0, SVG Export Plug-In . SVG Version: 6.00 Build 0)  -->
<!DOCTYPE svg PUBLIC "-//W3C//DTD SVG 1.1//EN" "http://www.w3.org/Graphics/SVG/1.1/DTD/svg11.dtd">
<svg version="1.1" id="Layer_1" xmlns="http://www.w3.org/2000/svg" xmlns:xlink="http://www.w3.org/1999/xlink" x="0px" y="0px"
	 width="55px" height="40px" viewBox="0 0 55 40" enable-background="new 0 0 55 40" xml:space="preserve">
<g>
	<polygon fill="#C5384F" points="47.239,29.5 42.217,29.5 42.217,26.305 47.239,25.391 	"/>
	<path fill="#C5384F" d="M33.165,20.492c0,0,0.456,6.392-0.457,9.586c-0.913,3.197,6.391,0.913,6.391,0.913l0.457-5.934l-3.194-4.11
		L33.165,20.492z"/>
	<path fill="#9DEB00" d="M55,36.274c0-4.205-3.529-7.647-7.843-7.647H32.254c-4.313,0-7.843,3.442-7.843,7.647V40H55V36.274z"/>
	<path fill="#FFF0E6" d="M43.824,28.039c0,2.273-1.845,4.118-4.12,4.118c-2.273,0-4.116-1.845-4.116-4.118V24.25h8.236V28.039z"/>
	<ellipse fill="#FFF0E6" cx="39.706" cy="19.608" rx="8.039" ry="9.019"/>
	<path fill="#00B5FF" d="M35.559,35.662c0-4.896-4.109-8.902-9.131-8.902H9.079c-5.021,0-9.13,4.007-9.13,8.902V40h35.61V35.662z"/>
	<path fill="#FFF0E6" d="M22.547,26.076c0,2.646-2.146,4.793-4.793,4.793c-2.647,0-4.793-2.146-4.793-4.793v-4.411h9.587V26.076z"/>
	<ellipse fill="#FFF0E6" cx="17.754" cy="16.26" rx="9.359" ry="10.5"/>
	<path fill="#FF694F" d="M44.113,13.326c0,0-0.983,2.956-4.434,3.45c-3.449,0.492-5.915,0-8.87,3.941c0,0-0.985-6.407,3.941-9.364
		C39.68,8.397,44.608,9.875,44.113,13.326z"/>
	<path fill="#FF694F" d="M43.13,12.151c0,0,3.652-0.913,4.564,5.021c0.914,5.938-0.455,15.067,1.827,17.348
		c0,0-1.827-0.911-2.739-3.194c0,0-0.457,0.914,0,1.826c0,0-2.282-2.282-2.282-15.979c0-1.369-1.37-2.282-1.37-2.282V12.151z"/>
	<path fill="#FF694F" d="M23.319,10.325c0,0-6.704,3.652-15.799,3.652c0.479-2.739,2.873-8.674,8.618-8.674
		c5.745,0,7.182,1.826,7.66,2.739c0.958,0,3.83,2.74,3.352,8.674C27.149,16.716,22.84,14.89,23.319,10.325z"/>
	<path d="M23.956,5.759"/>
</g>
</svg>
