<?xml version="1.0" encoding="utf-8"?>
<!-- Generator: Adobe Illustrator 16.0.0, SVG Export Plug-In . SVG Version: 6.00 Build 0)  -->
<!DOCTYPE svg PUBLIC "-//W3C//DTD SVG 1.1//EN" "http://www.w3.org/Graphics/SVG/1.1/DTD/svg11.dtd">
<svg version="1.1" id="Layer_1" xmlns="http://www.w3.org/2000/svg" xmlns:xlink="http://www.w3.org/1999/xlink" x="0px" y="0px"
	 width="100px" height="100px" viewBox="0 0 100 100" enable-background="new 0 0 100 100" xml:space="preserve">
<path fill="#CD7561" d="M83.668,65.035c0,3.054,2.477,5.53,5.529,5.53c3.055,0,5.531-2.477,5.531-5.53V41.231L83.668,65.035z"/>
<circle fill="#CD7561" cx="49.475" cy="55.897" r="43.286"/>
<path fill="#FF8061" d="M38.468,14.029C19.894,18.898,6.189,35.795,6.189,55.897c0,20.786,14.655,38.144,34.193,42.322
	c17.838-5.535,30.794-22.167,30.794-41.824C71.176,36.041,57.285,18.935,38.468,14.029z"/>
<g>
	<path fill="#CD7561" d="M25.531,28.392c2.234,2.236,2.234,5.859,0,8.094c-2.236,2.235-5.859,2.235-8.095,0l-1.444-1.444
		c-8.375-8.375-8.375-21.954,0-30.33c1.419-1.418,2.99-2.59,4.656-3.528c-4.601,8.173-3.428,18.891,3.529,25.847L25.531,28.392z"/>
	<path fill="#CD7561" d="M73.421,28.392c-2.235,2.236-2.234,5.859,0,8.094c2.234,2.235,5.858,2.235,8.094,0l1.444-1.444
		c8.376-8.375,8.376-21.954,0-30.33c-1.419-1.418-2.988-2.59-4.655-3.528c4.601,8.173,3.428,18.891-3.528,25.847L73.421,28.392z"/>
</g>
<g>
	<path fill="#FFDE00" d="M27.207,55.897c-5.329,0-10.144,1.09-13.617,2.845c3.473,1.756,8.288,2.843,13.617,2.843
		c5.327,0,10.144-1.087,13.616-2.843C37.35,56.987,32.533,55.897,27.207,55.897z"/>
	<path fill="#FFDE00" d="M71.744,55.897c-5.328,0-10.144,1.09-13.616,2.845c3.473,1.756,8.288,2.843,13.616,2.843
		c5.327,0,10.145-1.087,13.617-2.843C81.889,56.987,77.071,55.897,71.744,55.897z"/>
</g>
<g>
	<path fill="#54888E" d="M26.159,58.742c0,1.223,0.415,2.302,1.048,2.956c0.634-0.654,1.048-1.733,1.048-2.956
		s-0.414-2.302-1.048-2.957C26.573,56.44,26.159,57.52,26.159,58.742z"/>
	<path fill="#54888E" d="M70.696,58.742c0,1.223,0.414,2.302,1.048,2.956c0.635-0.654,1.049-1.733,1.049-2.956
		s-0.414-2.302-1.049-2.957C71.11,56.44,70.696,57.52,70.696,58.742z"/>
</g>
<g>
	<circle fill="#BB7561" cx="43.952" cy="72.259" r="3.535"/>
	<circle fill="#BB7561" cx="55" cy="72.259" r="3.536"/>
</g>
<path fill="#FF8061" d="M15.283,65.035c0,3.054-2.476,5.53-5.53,5.53c-3.054,0-5.53-2.477-5.53-5.53V41.231L15.283,65.035z"/>
<g>
	<path fill="none" stroke="#BB7561" stroke-width="4" stroke-linecap="round" d="M19.982,43.235c0,0,16.169,0,23.563,12.662"/>
	<path fill="none" stroke="#BB7561" stroke-width="4" stroke-linecap="round" d="M78.971,43.235c0,0-16.17,0-23.564,12.662"/>
</g>
<path fill="none" stroke="#BB7561" stroke-width="4" stroke-linecap="round" d="M31.961,83.396
	c4.834,3.766,10.912,6.007,17.514,6.007c6.604,0,12.682-2.242,17.517-6.007"/>
</svg>
