<?xml version="1.0" encoding="utf-8"?>
<!-- Generator: Adobe Illustrator 16.0.0, SVG Export Plug-In . SVG Version: 6.00 Build 0)  -->
<!DOCTYPE svg PUBLIC "-//W3C//DTD SVG 1.1//EN" "http://www.w3.org/Graphics/SVG/1.1/DTD/svg11.dtd">
<svg version="1.1" id="Layer_1" xmlns="http://www.w3.org/2000/svg" xmlns:xlink="http://www.w3.org/1999/xlink" x="0px" y="0px"
	 width="100px" height="100px" viewBox="0 0 100 100" enable-background="new 0 0 100 100" xml:space="preserve">
<g>
	<path fill="#B9DADF" d="M67.783,30.426H30.825L10.411,8.938v44.91c0,21.479,17.414,36.743,38.893,36.743
		c21.48,0,38.894-15.265,38.894-36.743V8.938L67.783,30.426z"/>
	<path fill="#91BBC1" d="M49.304,90.592c21.48,0,38.894-15.265,38.894-36.743V8.938L68.391,29.787
		c1.014,18.124-0.468,48.376-19.567,60.793C48.984,90.583,49.144,90.592,49.304,90.592z"/>
	<g>
		<path fill="#FFDE00" d="M27.9,42.299c-4.427,0-8.428,1.808-11.313,4.725c2.886,2.917,6.887,4.726,11.313,4.726
			c4.426,0,8.427-1.809,11.313-4.726C36.327,44.107,32.326,42.299,27.9,42.299z"/>
		<path fill="#54888E" d="M29.046,47.017c0,1.868,0.632,3.516,1.601,4.516c0.968-1,1.601-2.648,1.601-4.516
			c0-1.869-0.633-3.517-1.601-4.517C29.679,43.5,29.046,45.148,29.046,47.017z"/>
	</g>
	<g>
		<path fill="#FFDE00" d="M69.586,42.299c-4.427,0-8.427,1.808-11.313,4.725c2.886,2.917,6.886,4.726,11.313,4.726
			c4.426,0,8.428-1.809,11.313-4.726C78.014,44.107,74.012,42.299,69.586,42.299z"/>
		<path fill="#54888E" d="M70.732,47.017c0,1.868,0.632,3.516,1.6,4.516c0.969-1,1.603-2.648,1.603-4.516
			c0-1.869-0.634-3.517-1.603-4.517C71.364,43.5,70.732,45.148,70.732,47.017z"/>
	</g>
	<path fill="none" stroke="#54888E" stroke-width="4" stroke-linecap="round" d="M49.304,68.256c0,7.12-5.772,12.894-12.892,12.894"
		/>
	<path fill="none" stroke="#54888E" stroke-width="4" stroke-linecap="round" d="M49.306,68.256c0,7.12,5.771,12.894,12.893,12.894"
		/>
	<path fill="#54888E" d="M49.304,61.809c-3.439,0-6.548,1.406-8.792,3.674c2.243,2.266,5.353,3.674,8.792,3.674
		c3.441,0,6.551-1.408,8.794-3.674C55.854,63.215,52.745,61.809,49.304,61.809z"/>
	<g>
		<line fill="none" stroke="#FFFFFF" x1="32.248" y1="68.256" x2="0.563" y2="59.075"/>
		<line fill="none" stroke="#FFFFFF" x1="0.563" y1="81.149" x2="32.248" y2="71.969"/>
		<line fill="none" stroke="#FFFFFF" x1="0.563" y1="70.113" x2="32.248" y2="70.113"/>
	</g>
	<g>
		<line fill="none" stroke="#FFFFFF" x1="66.879" y1="68.256" x2="98.563" y2="59.075"/>
		<line fill="none" stroke="#FFFFFF" x1="98.563" y1="81.149" x2="66.879" y2="71.969"/>
		<line fill="none" stroke="#FFFFFF" x1="98.563" y1="70.113" x2="66.879" y2="70.113"/>
	</g>
</g>
</svg>
