<?xml version="1.0" encoding="utf-8"?>
<!-- Generator: Adobe Illustrator 16.0.0, SVG Export Plug-In . SVG Version: 6.00 Build 0)  -->
<!DOCTYPE svg PUBLIC "-//W3C//DTD SVG 1.1//EN" "http://www.w3.org/Graphics/SVG/1.1/DTD/svg11.dtd">
<svg version="1.1" id="Layer_1" xmlns="http://www.w3.org/2000/svg" xmlns:xlink="http://www.w3.org/1999/xlink" x="0px" y="0px"
	 width="150px" height="100px" viewBox="0 0 150 100" enable-background="new 0 0 150 100" xml:space="preserve">
<g>
	<polygon opacity="0.29" fill="#FFFFFF" points="32.723,45.058 47.381,80.502 58.563,79.096 62.039,45.058 	"/>
	<polygon opacity="0.29" fill="#FFFFFF" points="101.414,45.058 116.072,80.502 127.252,79.096 130.73,45.058 	"/>
	<g>
		<line fill="none" stroke="#54888E" stroke-width="11" stroke-linecap="round" x1="5.393" y1="18.723" x2="18.396" y2="62.779"/>
		<line fill="none" stroke="#54888E" stroke-width="11" stroke-linecap="round" x1="143.734" y1="18.723" x2="130.73" y2="62.779"/>
	</g>
	<g>
		<path fill="none" stroke="#54888E" stroke-width="12" d="M60.891,70.537c-0.461,5.48-5.338,9.965-10.838,9.965h-19.42
			c-5.5,0-10.377-4.484-10.839-9.965l-1.305-15.514c-0.462-5.481,3.661-9.965,9.161-9.965h25.383c5.5,0,9.623,4.484,9.162,9.965
			L60.891,70.537z"/>
	</g>
	<g>
		<path fill="none" stroke="#54888E" stroke-width="12" d="M129.332,70.537c-0.461,5.48-5.338,9.965-10.838,9.965h-19.42
			c-5.5,0-10.377-4.484-10.838-9.965l-1.305-15.514c-0.461-5.481,3.662-9.965,9.162-9.965h25.381c5.5,0,9.623,4.484,9.162,9.965
			L129.332,70.537z"/>
	</g>
	<line fill="none" stroke="#54888E" stroke-width="17" x1="58.563" y1="57.73" x2="90.564" y2="57.73"/>
	<rect x="68.996" y="49.058" fill="#FFFFFF" width="5.715" height="17.333"/>
	<rect x="74.066" y="49.058" fill="#FFFFFF" width="5.715" height="17.333"/>
</g>
</svg>
