<?xml version="1.0" encoding="utf-8"?>
<!-- Generator: Adobe Illustrator 16.0.0, SVG Export Plug-In . SVG Version: 6.00 Build 0)  -->
<!DOCTYPE svg PUBLIC "-//W3C//DTD SVG 1.1//EN" "http://www.w3.org/Graphics/SVG/1.1/DTD/svg11.dtd">
<svg version="1.1" id="Layer_1" xmlns="http://www.w3.org/2000/svg" xmlns:xlink="http://www.w3.org/1999/xlink" x="0px" y="0px"
	 width="100px" height="100px" viewBox="0 0 100 100" enable-background="new 0 0 100 100" xml:space="preserve">
<g>
	<polygon fill="#FFDE00" points="48.665,71.332 36.969,71.332 49.786,36.24 61.482,36.24 	"/>
	<polygon fill="#FFDE00" points="37.529,98.765 50.346,63.674 62.041,63.674 	"/>
	<polygon fill="#FFC100" points="53.246,58.79 61.482,36.24 49.786,36.24 41.55,58.79 	"/>
	<g>
		<path fill="#54888E" d="M94.359,27.771c0-14.915-12.091-27.006-27.006-27.006c-12.758,0-23.449,8.847-26.273,20.742H30.569
			c-5.734,0-10.384,4.648-10.384,10.384c0,2.239,0.712,4.312,1.917,6.008h-9.012c-4.661,0-8.439,3.778-8.439,8.438
			c0,4.661,3.779,8.44,8.439,8.44h56.523l0.075-0.102C83.511,53.491,94.359,41.898,94.359,27.771z"/>
		<path fill="#91BBC1" d="M87.527,24.215c0-12.637-10.243-22.881-22.879-22.881H61.82c-10.229,2.13-18.335,10.047-20.74,20.172
			H30.569c-5.734,0-10.384,4.648-10.384,10.384c0,2.239,0.712,4.312,1.917,6.008h-9.012c-4.661,0-8.439,3.778-8.439,8.438
			c0,0.256,0.014,0.508,0.036,0.758h59.961C77.284,47.094,87.527,36.851,87.527,24.215z"/>
		<path fill="#B9DADF" d="M62.226,1.334H61.82c-10.229,2.13-18.335,10.047-20.74,20.172H30.569c-5.734,0-10.384,4.648-10.384,10.384
			c0,2.239,0.712,4.312,1.917,6.008h40.498c10.117,0,18.317-8.131,18.317-18.247C80.918,9.534,72.343,1.334,62.226,1.334z"/>
	</g>
</g>
</svg>
